<?xml version="1.0" encoding="utf-8" standalone="no"?>
<!DOCTYPE svg PUBLIC "-//W3C//DTD SVG 1.1//EN"
  "http://www.w3.org/Graphics/SVG/1.1/DTD/svg11.dtd">
<!-- Created with matplotlib (https://matplotlib.org/) -->
<svg height="936pt" version="1.1" viewBox="0 0 864 936" width="864pt" xmlns="http://www.w3.org/2000/svg" xmlns:xlink="http://www.w3.org/1999/xlink">
 <metadata>
  <rdf:RDF xmlns:cc="http://creativecommons.org/ns#" xmlns:dc="http://purl.org/dc/elements/1.1/" xmlns:rdf="http://www.w3.org/1999/02/22-rdf-syntax-ns#">
   <cc:Work>
    <dc:type rdf:resource="http://purl.org/dc/dcmitype/StillImage"/>
    <dc:date>2020-11-15T19:30:45.957052</dc:date>
    <dc:format>image/svg+xml</dc:format>
    <dc:creator>
     <cc:Agent>
      <dc:title>Matplotlib v3.3.2, https://matplotlib.org/</dc:title>
     </cc:Agent>
    </dc:creator>
   </cc:Work>
  </rdf:RDF>
 </metadata>
 <defs>
  <style type="text/css">*{stroke-linecap:butt;stroke-linejoin:round;}</style>
 </defs>
 <g id="figure_1">
  <g id="patch_1">
   <path d="M 0 936 
L 864 936 
L 864 0 
L 0 0 
z
" style="fill:#ffffff;"/>
  </g>
  <g id="axes_1">
   <g id="patch_2">
    <path d="M 108 188.4 
L 777.6 188.4 
L 777.6 93.6 
L 108 93.6 
z
" style="fill:#ffffff;"/>
   </g>
   <g id="BrokenBarHCollection_1">
    <path clip-path="url(#p3397030508)" d="M 108 126.78 
L 108 107.82 
L 184.525714 107.82 
L 184.525714 126.78 
L 108 126.78 
z
" style="fill:#f0e156;stroke:#000000;"/>
    <path clip-path="url(#p3397030508)" d="M 241.92 126.78 
L 241.92 107.82 
L 289.748571 107.82 
L 289.748571 126.78 
L 241.92 126.78 
z
" style="fill:#f0e156;stroke:#000000;"/>
    <path clip-path="url(#p3397030508)" d="M 423.668571 126.78 
L 423.668571 107.82 
L 471.497143 107.82 
L 471.497143 126.78 
L 423.668571 126.78 
z
" style="fill:#f0e156;stroke:#000000;"/>
    <path clip-path="url(#p3397030508)" d="M 471.497143 126.78 
L 471.497143 107.82 
L 490.628571 107.82 
L 490.628571 126.78 
L 471.497143 126.78 
z
" style="fill:#f0e156;stroke:#000000;"/>
    <path clip-path="url(#p3397030508)" d="M 557.588571 126.78 
L 557.588571 107.82 
L 567.154286 107.82 
L 567.154286 126.78 
L 557.588571 126.78 
z
" style="fill:#f0e156;stroke:#000000;"/>
   </g>
   <g id="BrokenBarHCollection_2">
    <path clip-path="url(#p3397030508)" d="M 117.565714 150.48 
L 117.565714 131.52 
L 146.262857 131.52 
L 146.262857 150.48 
L 117.565714 150.48 
z
" style="fill:#f56670;stroke:#000000;"/>
    <path clip-path="url(#p3397030508)" d="M 155.828571 150.48 
L 155.828571 131.52 
L 194.091429 131.52 
L 194.091429 150.48 
L 155.828571 150.48 
z
" style="fill:#f56670;stroke:#000000;"/>
    <path clip-path="url(#p3397030508)" d="M 194.091429 150.48 
L 194.091429 131.52 
L 251.485714 131.52 
L 251.485714 150.48 
L 194.091429 150.48 
z
" style="fill:#f56670;stroke:#000000;"/>
    <path clip-path="url(#p3397030508)" d="M 289.748571 150.48 
L 289.748571 131.52 
L 318.445714 131.52 
L 318.445714 150.48 
L 289.748571 150.48 
z
" style="fill:#f56670;stroke:#000000;"/>
    <path clip-path="url(#p3397030508)" d="M 423.668571 150.48 
L 423.668571 131.52 
L 509.76 131.52 
L 509.76 150.48 
L 423.668571 150.48 
z
" style="fill:#f56670;stroke:#000000;"/>
   </g>
   <g id="BrokenBarHCollection_3">
    <path clip-path="url(#p3397030508)" d="M 155.828571 174.18 
L 155.828571 155.22 
L 194.091429 155.22 
L 194.091429 174.18 
L 155.828571 174.18 
z
" style="fill:#16bfe0;stroke:#000000;"/>
    <path clip-path="url(#p3397030508)" d="M 241.92 174.18 
L 241.92 155.22 
L 261.051429 155.22 
L 261.051429 174.18 
L 241.92 174.18 
z
" style="fill:#16bfe0;stroke:#000000;"/>
    <path clip-path="url(#p3397030508)" d="M 385.405714 174.18 
L 385.405714 155.22 
L 452.365714 155.22 
L 452.365714 174.18 
L 385.405714 174.18 
z
" style="fill:#16bfe0;stroke:#000000;"/>
    <path clip-path="url(#p3397030508)" d="M 452.365714 174.18 
L 452.365714 155.22 
L 471.497143 155.22 
L 471.497143 174.18 
L 452.365714 174.18 
z
" style="fill:#16bfe0;stroke:#000000;"/>
    <path clip-path="url(#p3397030508)" d="M 471.497143 174.18 
L 471.497143 155.22 
L 557.588571 155.22 
L 557.588571 174.18 
L 471.497143 174.18 
z
" style="fill:#16bfe0;stroke:#000000;"/>
   </g>
   <g id="matplotlib.axis_1">
    <g id="xtick_1">
     <g id="line2d_1">
      <defs>
       <path d="M 0 0 
L 0 3.5 
" id="m58a79e5777" style="stroke:#000000;stroke-width:0.8;"/>
      </defs>
      <g>
       <use style="stroke:#000000;stroke-width:0.8;" x="108" xlink:href="#m58a79e5777" y="188.4"/>
      </g>
     </g>
     <g id="text_1">
      <!-- 0 -->
      <g transform="translate(104.81875 202.998438)scale(0.1 -0.1)">
       <defs>
        <path d="M 31.78125 66.40625 
Q 24.171875 66.40625 20.328125 58.90625 
Q 16.5 51.421875 16.5 36.375 
Q 16.5 21.390625 20.328125 13.890625 
Q 24.171875 6.390625 31.78125 6.390625 
Q 39.453125 6.390625 43.28125 13.890625 
Q 47.125 21.390625 47.125 36.375 
Q 47.125 51.421875 43.28125 58.90625 
Q 39.453125 66.40625 31.78125 66.40625 
z
M 31.78125 74.21875 
Q 44.046875 74.21875 50.515625 64.515625 
Q 56.984375 54.828125 56.984375 36.375 
Q 56.984375 17.96875 50.515625 8.265625 
Q 44.046875 -1.421875 31.78125 -1.421875 
Q 19.53125 -1.421875 13.0625 8.265625 
Q 6.59375 17.96875 6.59375 36.375 
Q 6.59375 54.828125 13.0625 64.515625 
Q 19.53125 74.21875 31.78125 74.21875 
z
" id="DejaVuSans-48"/>
       </defs>
       <use xlink:href="#DejaVuSans-48"/>
      </g>
     </g>
    </g>
    <g id="xtick_2">
     <g id="line2d_2">
      <g>
       <use style="stroke:#000000;stroke-width:0.8;" x="203.657143" xlink:href="#m58a79e5777" y="188.4"/>
      </g>
     </g>
     <g id="text_2">
      <!-- 10 -->
      <g transform="translate(197.294643 202.998438)scale(0.1 -0.1)">
       <defs>
        <path d="M 12.40625 8.296875 
L 28.515625 8.296875 
L 28.515625 63.921875 
L 10.984375 60.40625 
L 10.984375 69.390625 
L 28.421875 72.90625 
L 38.28125 72.90625 
L 38.28125 8.296875 
L 54.390625 8.296875 
L 54.390625 0 
L 12.40625 0 
z
" id="DejaVuSans-49"/>
       </defs>
       <use xlink:href="#DejaVuSans-49"/>
       <use x="63.623047" xlink:href="#DejaVuSans-48"/>
      </g>
     </g>
    </g>
    <g id="xtick_3">
     <g id="line2d_3">
      <g>
       <use style="stroke:#000000;stroke-width:0.8;" x="299.314286" xlink:href="#m58a79e5777" y="188.4"/>
      </g>
     </g>
     <g id="text_3">
      <!-- 20 -->
      <g transform="translate(292.951786 202.998438)scale(0.1 -0.1)">
       <defs>
        <path d="M 19.1875 8.296875 
L 53.609375 8.296875 
L 53.609375 0 
L 7.328125 0 
L 7.328125 8.296875 
Q 12.9375 14.109375 22.625 23.890625 
Q 32.328125 33.6875 34.8125 36.53125 
Q 39.546875 41.84375 41.421875 45.53125 
Q 43.3125 49.21875 43.3125 52.78125 
Q 43.3125 58.59375 39.234375 62.25 
Q 35.15625 65.921875 28.609375 65.921875 
Q 23.96875 65.921875 18.8125 64.3125 
Q 13.671875 62.703125 7.8125 59.421875 
L 7.8125 69.390625 
Q 13.765625 71.78125 18.9375 73 
Q 24.125 74.21875 28.421875 74.21875 
Q 39.75 74.21875 46.484375 68.546875 
Q 53.21875 62.890625 53.21875 53.421875 
Q 53.21875 48.921875 51.53125 44.890625 
Q 49.859375 40.875 45.40625 35.40625 
Q 44.1875 33.984375 37.640625 27.21875 
Q 31.109375 20.453125 19.1875 8.296875 
z
" id="DejaVuSans-50"/>
       </defs>
       <use xlink:href="#DejaVuSans-50"/>
       <use x="63.623047" xlink:href="#DejaVuSans-48"/>
      </g>
     </g>
    </g>
    <g id="xtick_4">
     <g id="line2d_4">
      <g>
       <use style="stroke:#000000;stroke-width:0.8;" x="394.971429" xlink:href="#m58a79e5777" y="188.4"/>
      </g>
     </g>
     <g id="text_4">
      <!-- 30 -->
      <g transform="translate(388.608929 202.998438)scale(0.1 -0.1)">
       <defs>
        <path d="M 40.578125 39.3125 
Q 47.65625 37.796875 51.625 33 
Q 55.609375 28.21875 55.609375 21.1875 
Q 55.609375 10.40625 48.1875 4.484375 
Q 40.765625 -1.421875 27.09375 -1.421875 
Q 22.515625 -1.421875 17.65625 -0.515625 
Q 12.796875 0.390625 7.625 2.203125 
L 7.625 11.71875 
Q 11.71875 9.328125 16.59375 8.109375 
Q 21.484375 6.890625 26.8125 6.890625 
Q 36.078125 6.890625 40.9375 10.546875 
Q 45.796875 14.203125 45.796875 21.1875 
Q 45.796875 27.640625 41.28125 31.265625 
Q 36.765625 34.90625 28.71875 34.90625 
L 20.21875 34.90625 
L 20.21875 43.015625 
L 29.109375 43.015625 
Q 36.375 43.015625 40.234375 45.921875 
Q 44.09375 48.828125 44.09375 54.296875 
Q 44.09375 59.90625 40.109375 62.90625 
Q 36.140625 65.921875 28.71875 65.921875 
Q 24.65625 65.921875 20.015625 65.03125 
Q 15.375 64.15625 9.8125 62.3125 
L 9.8125 71.09375 
Q 15.4375 72.65625 20.34375 73.4375 
Q 25.25 74.21875 29.59375 74.21875 
Q 40.828125 74.21875 47.359375 69.109375 
Q 53.90625 64.015625 53.90625 55.328125 
Q 53.90625 49.265625 50.4375 45.09375 
Q 46.96875 40.921875 40.578125 39.3125 
z
" id="DejaVuSans-51"/>
       </defs>
       <use xlink:href="#DejaVuSans-51"/>
       <use x="63.623047" xlink:href="#DejaVuSans-48"/>
      </g>
     </g>
    </g>
    <g id="xtick_5">
     <g id="line2d_5">
      <g>
       <use style="stroke:#000000;stroke-width:0.8;" x="490.628571" xlink:href="#m58a79e5777" y="188.4"/>
      </g>
     </g>
     <g id="text_5">
      <!-- 40 -->
      <g transform="translate(484.266071 202.998438)scale(0.1 -0.1)">
       <defs>
        <path d="M 37.796875 64.3125 
L 12.890625 25.390625 
L 37.796875 25.390625 
z
M 35.203125 72.90625 
L 47.609375 72.90625 
L 47.609375 25.390625 
L 58.015625 25.390625 
L 58.015625 17.1875 
L 47.609375 17.1875 
L 47.609375 0 
L 37.796875 0 
L 37.796875 17.1875 
L 4.890625 17.1875 
L 4.890625 26.703125 
z
" id="DejaVuSans-52"/>
       </defs>
       <use xlink:href="#DejaVuSans-52"/>
       <use x="63.623047" xlink:href="#DejaVuSans-48"/>
      </g>
     </g>
    </g>
    <g id="xtick_6">
     <g id="line2d_6">
      <g>
       <use style="stroke:#000000;stroke-width:0.8;" x="586.285714" xlink:href="#m58a79e5777" y="188.4"/>
      </g>
     </g>
     <g id="text_6">
      <!-- 50 -->
      <g transform="translate(579.923214 202.998438)scale(0.1 -0.1)">
       <defs>
        <path d="M 10.796875 72.90625 
L 49.515625 72.90625 
L 49.515625 64.59375 
L 19.828125 64.59375 
L 19.828125 46.734375 
Q 21.96875 47.46875 24.109375 47.828125 
Q 26.265625 48.1875 28.421875 48.1875 
Q 40.625 48.1875 47.75 41.5 
Q 54.890625 34.8125 54.890625 23.390625 
Q 54.890625 11.625 47.5625 5.09375 
Q 40.234375 -1.421875 26.90625 -1.421875 
Q 22.3125 -1.421875 17.546875 -0.640625 
Q 12.796875 0.140625 7.71875 1.703125 
L 7.71875 11.625 
Q 12.109375 9.234375 16.796875 8.0625 
Q 21.484375 6.890625 26.703125 6.890625 
Q 35.15625 6.890625 40.078125 11.328125 
Q 45.015625 15.765625 45.015625 23.390625 
Q 45.015625 31 40.078125 35.4375 
Q 35.15625 39.890625 26.703125 39.890625 
Q 22.75 39.890625 18.8125 39.015625 
Q 14.890625 38.140625 10.796875 36.28125 
z
" id="DejaVuSans-53"/>
       </defs>
       <use xlink:href="#DejaVuSans-53"/>
       <use x="63.623047" xlink:href="#DejaVuSans-48"/>
      </g>
     </g>
    </g>
    <g id="xtick_7">
     <g id="line2d_7">
      <g>
       <use style="stroke:#000000;stroke-width:0.8;" x="681.942857" xlink:href="#m58a79e5777" y="188.4"/>
      </g>
     </g>
     <g id="text_7">
      <!-- 60 -->
      <g transform="translate(675.580357 202.998438)scale(0.1 -0.1)">
       <defs>
        <path d="M 33.015625 40.375 
Q 26.375 40.375 22.484375 35.828125 
Q 18.609375 31.296875 18.609375 23.390625 
Q 18.609375 15.53125 22.484375 10.953125 
Q 26.375 6.390625 33.015625 6.390625 
Q 39.65625 6.390625 43.53125 10.953125 
Q 47.40625 15.53125 47.40625 23.390625 
Q 47.40625 31.296875 43.53125 35.828125 
Q 39.65625 40.375 33.015625 40.375 
z
M 52.59375 71.296875 
L 52.59375 62.3125 
Q 48.875 64.0625 45.09375 64.984375 
Q 41.3125 65.921875 37.59375 65.921875 
Q 27.828125 65.921875 22.671875 59.328125 
Q 17.53125 52.734375 16.796875 39.40625 
Q 19.671875 43.65625 24.015625 45.921875 
Q 28.375 48.1875 33.59375 48.1875 
Q 44.578125 48.1875 50.953125 41.515625 
Q 57.328125 34.859375 57.328125 23.390625 
Q 57.328125 12.15625 50.6875 5.359375 
Q 44.046875 -1.421875 33.015625 -1.421875 
Q 20.359375 -1.421875 13.671875 8.265625 
Q 6.984375 17.96875 6.984375 36.375 
Q 6.984375 53.65625 15.1875 63.9375 
Q 23.390625 74.21875 37.203125 74.21875 
Q 40.921875 74.21875 44.703125 73.484375 
Q 48.484375 72.75 52.59375 71.296875 
z
" id="DejaVuSans-54"/>
       </defs>
       <use xlink:href="#DejaVuSans-54"/>
       <use x="63.623047" xlink:href="#DejaVuSans-48"/>
      </g>
     </g>
    </g>
    <g id="xtick_8">
     <g id="line2d_8">
      <g>
       <use style="stroke:#000000;stroke-width:0.8;" x="777.6" xlink:href="#m58a79e5777" y="188.4"/>
      </g>
     </g>
     <g id="text_8">
      <!-- 70 -->
      <g transform="translate(771.2375 202.998438)scale(0.1 -0.1)">
       <defs>
        <path d="M 8.203125 72.90625 
L 55.078125 72.90625 
L 55.078125 68.703125 
L 28.609375 0 
L 18.3125 0 
L 43.21875 64.59375 
L 8.203125 64.59375 
z
" id="DejaVuSans-55"/>
       </defs>
       <use xlink:href="#DejaVuSans-55"/>
       <use x="63.623047" xlink:href="#DejaVuSans-48"/>
      </g>
     </g>
    </g>
    <g id="text_9">
     <!-- Zeit -->
     <g transform="translate(432.949219 216.676563)scale(0.1 -0.1)">
      <defs>
       <path d="M 5.609375 72.90625 
L 62.890625 72.90625 
L 62.890625 65.375 
L 16.796875 8.296875 
L 64.015625 8.296875 
L 64.015625 0 
L 4.5 0 
L 4.5 7.515625 
L 50.59375 64.59375 
L 5.609375 64.59375 
z
" id="DejaVuSans-90"/>
       <path d="M 56.203125 29.59375 
L 56.203125 25.203125 
L 14.890625 25.203125 
Q 15.484375 15.921875 20.484375 11.0625 
Q 25.484375 6.203125 34.421875 6.203125 
Q 39.59375 6.203125 44.453125 7.46875 
Q 49.3125 8.734375 54.109375 11.28125 
L 54.109375 2.78125 
Q 49.265625 0.734375 44.1875 -0.34375 
Q 39.109375 -1.421875 33.890625 -1.421875 
Q 20.796875 -1.421875 13.15625 6.1875 
Q 5.515625 13.8125 5.515625 26.8125 
Q 5.515625 40.234375 12.765625 48.109375 
Q 20.015625 56 32.328125 56 
Q 43.359375 56 49.78125 48.890625 
Q 56.203125 41.796875 56.203125 29.59375 
z
M 47.21875 32.234375 
Q 47.125 39.59375 43.09375 43.984375 
Q 39.0625 48.390625 32.421875 48.390625 
Q 24.90625 48.390625 20.390625 44.140625 
Q 15.875 39.890625 15.1875 32.171875 
z
" id="DejaVuSans-101"/>
       <path d="M 9.421875 54.6875 
L 18.40625 54.6875 
L 18.40625 0 
L 9.421875 0 
z
M 9.421875 75.984375 
L 18.40625 75.984375 
L 18.40625 64.59375 
L 9.421875 64.59375 
z
" id="DejaVuSans-105"/>
       <path d="M 18.3125 70.21875 
L 18.3125 54.6875 
L 36.8125 54.6875 
L 36.8125 47.703125 
L 18.3125 47.703125 
L 18.3125 18.015625 
Q 18.3125 11.328125 20.140625 9.421875 
Q 21.96875 7.515625 27.59375 7.515625 
L 36.8125 7.515625 
L 36.8125 0 
L 27.59375 0 
Q 17.1875 0 13.234375 3.875 
Q 9.28125 7.765625 9.28125 18.015625 
L 9.28125 47.703125 
L 2.6875 47.703125 
L 2.6875 54.6875 
L 9.28125 54.6875 
L 9.28125 70.21875 
z
" id="DejaVuSans-116"/>
      </defs>
      <use xlink:href="#DejaVuSans-90"/>
      <use x="68.505859" xlink:href="#DejaVuSans-101"/>
      <use x="130.029297" xlink:href="#DejaVuSans-105"/>
      <use x="157.8125" xlink:href="#DejaVuSans-116"/>
     </g>
    </g>
   </g>
   <g id="matplotlib.axis_2">
    <g id="ytick_1">
     <g id="line2d_9">
      <defs>
       <path d="M 0 0 
L -3.5 0 
" id="m7d9be4e03e" style="stroke:#000000;stroke-width:0.8;"/>
      </defs>
      <g>
       <use style="stroke:#000000;stroke-width:0.8;" x="108" xlink:href="#m7d9be4e03e" y="164.7"/>
      </g>
     </g>
     <g id="text_10">
      <!-- Quelle 3 -->
      <g transform="translate(59.3875 168.499219)scale(0.1 -0.1)">
       <defs>
        <path d="M 39.40625 66.21875 
Q 28.65625 66.21875 22.328125 58.203125 
Q 16.015625 50.203125 16.015625 36.375 
Q 16.015625 22.609375 22.328125 14.59375 
Q 28.65625 6.59375 39.40625 6.59375 
Q 50.140625 6.59375 56.421875 14.59375 
Q 62.703125 22.609375 62.703125 36.375 
Q 62.703125 50.203125 56.421875 58.203125 
Q 50.140625 66.21875 39.40625 66.21875 
z
M 53.21875 1.3125 
L 66.21875 -12.890625 
L 54.296875 -12.890625 
L 43.5 -1.21875 
Q 41.890625 -1.3125 41.03125 -1.359375 
Q 40.1875 -1.421875 39.40625 -1.421875 
Q 24.03125 -1.421875 14.8125 8.859375 
Q 5.609375 19.140625 5.609375 36.375 
Q 5.609375 53.65625 14.8125 63.9375 
Q 24.03125 74.21875 39.40625 74.21875 
Q 54.734375 74.21875 63.90625 63.9375 
Q 73.09375 53.65625 73.09375 36.375 
Q 73.09375 23.6875 67.984375 14.640625 
Q 62.890625 5.609375 53.21875 1.3125 
z
" id="DejaVuSans-81"/>
        <path d="M 8.5 21.578125 
L 8.5 54.6875 
L 17.484375 54.6875 
L 17.484375 21.921875 
Q 17.484375 14.15625 20.5 10.265625 
Q 23.53125 6.390625 29.59375 6.390625 
Q 36.859375 6.390625 41.078125 11.03125 
Q 45.3125 15.671875 45.3125 23.6875 
L 45.3125 54.6875 
L 54.296875 54.6875 
L 54.296875 0 
L 45.3125 0 
L 45.3125 8.40625 
Q 42.046875 3.421875 37.71875 1 
Q 33.40625 -1.421875 27.6875 -1.421875 
Q 18.265625 -1.421875 13.375 4.4375 
Q 8.5 10.296875 8.5 21.578125 
z
M 31.109375 56 
z
" id="DejaVuSans-117"/>
        <path d="M 9.421875 75.984375 
L 18.40625 75.984375 
L 18.40625 0 
L 9.421875 0 
z
" id="DejaVuSans-108"/>
        <path id="DejaVuSans-32"/>
       </defs>
       <use xlink:href="#DejaVuSans-81"/>
       <use x="78.710938" xlink:href="#DejaVuSans-117"/>
       <use x="142.089844" xlink:href="#DejaVuSans-101"/>
       <use x="203.613281" xlink:href="#DejaVuSans-108"/>
       <use x="231.396484" xlink:href="#DejaVuSans-108"/>
       <use x="259.179688" xlink:href="#DejaVuSans-101"/>
       <use x="320.703125" xlink:href="#DejaVuSans-32"/>
       <use x="352.490234" xlink:href="#DejaVuSans-51"/>
      </g>
     </g>
    </g>
    <g id="ytick_2">
     <g id="line2d_10">
      <g>
       <use style="stroke:#000000;stroke-width:0.8;" x="108" xlink:href="#m7d9be4e03e" y="141"/>
      </g>
     </g>
     <g id="text_11">
      <!-- Quelle 2 -->
      <g transform="translate(59.3875 144.799219)scale(0.1 -0.1)">
       <use xlink:href="#DejaVuSans-81"/>
       <use x="78.710938" xlink:href="#DejaVuSans-117"/>
       <use x="142.089844" xlink:href="#DejaVuSans-101"/>
       <use x="203.613281" xlink:href="#DejaVuSans-108"/>
       <use x="231.396484" xlink:href="#DejaVuSans-108"/>
       <use x="259.179688" xlink:href="#DejaVuSans-101"/>
       <use x="320.703125" xlink:href="#DejaVuSans-32"/>
       <use x="352.490234" xlink:href="#DejaVuSans-50"/>
      </g>
     </g>
    </g>
    <g id="ytick_3">
     <g id="line2d_11">
      <g>
       <use style="stroke:#000000;stroke-width:0.8;" x="108" xlink:href="#m7d9be4e03e" y="117.3"/>
      </g>
     </g>
     <g id="text_12">
      <!-- Quelle 1 -->
      <g transform="translate(59.3875 121.099219)scale(0.1 -0.1)">
       <use xlink:href="#DejaVuSans-81"/>
       <use x="78.710938" xlink:href="#DejaVuSans-117"/>
       <use x="142.089844" xlink:href="#DejaVuSans-101"/>
       <use x="203.613281" xlink:href="#DejaVuSans-108"/>
       <use x="231.396484" xlink:href="#DejaVuSans-108"/>
       <use x="259.179688" xlink:href="#DejaVuSans-101"/>
       <use x="320.703125" xlink:href="#DejaVuSans-32"/>
       <use x="352.490234" xlink:href="#DejaVuSans-49"/>
      </g>
     </g>
    </g>
   </g>
   <g id="patch_3">
    <path d="M 108 188.4 
L 108 93.6 
" style="fill:none;stroke:#000000;stroke-linecap:square;stroke-linejoin:miter;stroke-width:0.8;"/>
   </g>
   <g id="patch_4">
    <path d="M 777.6 188.4 
L 777.6 93.6 
" style="fill:none;stroke:#000000;stroke-linecap:square;stroke-linejoin:miter;stroke-width:0.8;"/>
   </g>
   <g id="patch_5">
    <path d="M 108 188.4 
L 777.6 188.4 
" style="fill:none;stroke:#000000;stroke-linecap:square;stroke-linejoin:miter;stroke-width:0.8;"/>
   </g>
   <g id="patch_6">
    <path d="M 108 93.6 
L 777.6 93.6 
" style="fill:none;stroke:#000000;stroke-linecap:square;stroke-linejoin:miter;stroke-width:0.8;"/>
   </g>
   <g id="text_13">
    <!-- Eintreffende Pakete -->
    <g transform="translate(384.019688 87.6)scale(0.12 -0.12)">
     <defs>
      <path d="M 9.8125 72.90625 
L 55.90625 72.90625 
L 55.90625 64.59375 
L 19.671875 64.59375 
L 19.671875 43.015625 
L 54.390625 43.015625 
L 54.390625 34.71875 
L 19.671875 34.71875 
L 19.671875 8.296875 
L 56.78125 8.296875 
L 56.78125 0 
L 9.8125 0 
z
" id="DejaVuSans-69"/>
      <path d="M 54.890625 33.015625 
L 54.890625 0 
L 45.90625 0 
L 45.90625 32.71875 
Q 45.90625 40.484375 42.875 44.328125 
Q 39.84375 48.1875 33.796875 48.1875 
Q 26.515625 48.1875 22.3125 43.546875 
Q 18.109375 38.921875 18.109375 30.90625 
L 18.109375 0 
L 9.078125 0 
L 9.078125 54.6875 
L 18.109375 54.6875 
L 18.109375 46.1875 
Q 21.34375 51.125 25.703125 53.5625 
Q 30.078125 56 35.796875 56 
Q 45.21875 56 50.046875 50.171875 
Q 54.890625 44.34375 54.890625 33.015625 
z
" id="DejaVuSans-110"/>
      <path d="M 41.109375 46.296875 
Q 39.59375 47.171875 37.8125 47.578125 
Q 36.03125 48 33.890625 48 
Q 26.265625 48 22.1875 43.046875 
Q 18.109375 38.09375 18.109375 28.8125 
L 18.109375 0 
L 9.078125 0 
L 9.078125 54.6875 
L 18.109375 54.6875 
L 18.109375 46.1875 
Q 20.953125 51.171875 25.484375 53.578125 
Q 30.03125 56 36.53125 56 
Q 37.453125 56 38.578125 55.875 
Q 39.703125 55.765625 41.0625 55.515625 
z
" id="DejaVuSans-114"/>
      <path d="M 37.109375 75.984375 
L 37.109375 68.5 
L 28.515625 68.5 
Q 23.6875 68.5 21.796875 66.546875 
Q 19.921875 64.59375 19.921875 59.515625 
L 19.921875 54.6875 
L 34.71875 54.6875 
L 34.71875 47.703125 
L 19.921875 47.703125 
L 19.921875 0 
L 10.890625 0 
L 10.890625 47.703125 
L 2.296875 47.703125 
L 2.296875 54.6875 
L 10.890625 54.6875 
L 10.890625 58.5 
Q 10.890625 67.625 15.140625 71.796875 
Q 19.390625 75.984375 28.609375 75.984375 
z
" id="DejaVuSans-102"/>
      <path d="M 45.40625 46.390625 
L 45.40625 75.984375 
L 54.390625 75.984375 
L 54.390625 0 
L 45.40625 0 
L 45.40625 8.203125 
Q 42.578125 3.328125 38.25 0.953125 
Q 33.9375 -1.421875 27.875 -1.421875 
Q 17.96875 -1.421875 11.734375 6.484375 
Q 5.515625 14.40625 5.515625 27.296875 
Q 5.515625 40.1875 11.734375 48.09375 
Q 17.96875 56 27.875 56 
Q 33.9375 56 38.25 53.625 
Q 42.578125 51.265625 45.40625 46.390625 
z
M 14.796875 27.296875 
Q 14.796875 17.390625 18.875 11.75 
Q 22.953125 6.109375 30.078125 6.109375 
Q 37.203125 6.109375 41.296875 11.75 
Q 45.40625 17.390625 45.40625 27.296875 
Q 45.40625 37.203125 41.296875 42.84375 
Q 37.203125 48.484375 30.078125 48.484375 
Q 22.953125 48.484375 18.875 42.84375 
Q 14.796875 37.203125 14.796875 27.296875 
z
" id="DejaVuSans-100"/>
      <path d="M 19.671875 64.796875 
L 19.671875 37.40625 
L 32.078125 37.40625 
Q 38.96875 37.40625 42.71875 40.96875 
Q 46.484375 44.53125 46.484375 51.125 
Q 46.484375 57.671875 42.71875 61.234375 
Q 38.96875 64.796875 32.078125 64.796875 
z
M 9.8125 72.90625 
L 32.078125 72.90625 
Q 44.34375 72.90625 50.609375 67.359375 
Q 56.890625 61.8125 56.890625 51.125 
Q 56.890625 40.328125 50.609375 34.8125 
Q 44.34375 29.296875 32.078125 29.296875 
L 19.671875 29.296875 
L 19.671875 0 
L 9.8125 0 
z
" id="DejaVuSans-80"/>
      <path d="M 34.28125 27.484375 
Q 23.390625 27.484375 19.1875 25 
Q 14.984375 22.515625 14.984375 16.5 
Q 14.984375 11.71875 18.140625 8.90625 
Q 21.296875 6.109375 26.703125 6.109375 
Q 34.1875 6.109375 38.703125 11.40625 
Q 43.21875 16.703125 43.21875 25.484375 
L 43.21875 27.484375 
z
M 52.203125 31.203125 
L 52.203125 0 
L 43.21875 0 
L 43.21875 8.296875 
Q 40.140625 3.328125 35.546875 0.953125 
Q 30.953125 -1.421875 24.3125 -1.421875 
Q 15.921875 -1.421875 10.953125 3.296875 
Q 6 8.015625 6 15.921875 
Q 6 25.140625 12.171875 29.828125 
Q 18.359375 34.515625 30.609375 34.515625 
L 43.21875 34.515625 
L 43.21875 35.40625 
Q 43.21875 41.609375 39.140625 45 
Q 35.0625 48.390625 27.6875 48.390625 
Q 23 48.390625 18.546875 47.265625 
Q 14.109375 46.140625 10.015625 43.890625 
L 10.015625 52.203125 
Q 14.9375 54.109375 19.578125 55.046875 
Q 24.21875 56 28.609375 56 
Q 40.484375 56 46.34375 49.84375 
Q 52.203125 43.703125 52.203125 31.203125 
z
" id="DejaVuSans-97"/>
      <path d="M 9.078125 75.984375 
L 18.109375 75.984375 
L 18.109375 31.109375 
L 44.921875 54.6875 
L 56.390625 54.6875 
L 27.390625 29.109375 
L 57.625 0 
L 45.90625 0 
L 18.109375 26.703125 
L 18.109375 0 
L 9.078125 0 
z
" id="DejaVuSans-107"/>
     </defs>
     <use xlink:href="#DejaVuSans-69"/>
     <use x="63.183594" xlink:href="#DejaVuSans-105"/>
     <use x="90.966797" xlink:href="#DejaVuSans-110"/>
     <use x="154.345703" xlink:href="#DejaVuSans-116"/>
     <use x="193.554688" xlink:href="#DejaVuSans-114"/>
     <use x="232.417969" xlink:href="#DejaVuSans-101"/>
     <use x="293.941406" xlink:href="#DejaVuSans-102"/>
     <use x="329.146484" xlink:href="#DejaVuSans-102"/>
     <use x="364.351562" xlink:href="#DejaVuSans-101"/>
     <use x="425.875" xlink:href="#DejaVuSans-110"/>
     <use x="489.253906" xlink:href="#DejaVuSans-100"/>
     <use x="552.730469" xlink:href="#DejaVuSans-101"/>
     <use x="614.253906" xlink:href="#DejaVuSans-32"/>
     <use x="646.041016" xlink:href="#DejaVuSans-80"/>
     <use x="701.84375" xlink:href="#DejaVuSans-97"/>
     <use x="763.123047" xlink:href="#DejaVuSans-107"/>
     <use x="817.408203" xlink:href="#DejaVuSans-101"/>
     <use x="878.931641" xlink:href="#DejaVuSans-116"/>
     <use x="918.140625" xlink:href="#DejaVuSans-101"/>
    </g>
   </g>
  </g>
  <g id="axes_2">
   <g id="patch_7">
    <path d="M 108 349.56 
L 777.6 349.56 
L 777.6 254.76 
L 108 254.76 
z
" style="fill:#ffffff;"/>
   </g>
   <g id="BrokenBarHCollection_4">
    <path clip-path="url(#pc4403b5cac)" d="M 108 287.94 
L 108 268.98 
L 184.525714 268.98 
L 184.525714 287.94 
L 108 287.94 
z
" style="fill:#f0e156;stroke:#000000;"/>
    <path clip-path="url(#pc4403b5cac)" d="M 366.274286 287.94 
L 366.274286 268.98 
L 414.102857 268.98 
L 414.102857 287.94 
L 366.274286 287.94 
z
" style="fill:#f0e156;stroke:#000000;"/>
    <path clip-path="url(#pc4403b5cac)" d="M 509.76 287.94 
L 509.76 268.98 
L 557.588571 268.98 
L 557.588571 287.94 
L 509.76 287.94 
z
" style="fill:#f0e156;stroke:#000000;"/>
    <path clip-path="url(#pc4403b5cac)" d="M 748.902857 287.94 
L 748.902857 268.98 
L 768.034286 268.98 
L 768.034286 287.94 
L 748.902857 287.94 
z
" style="fill:#f0e156;stroke:#000000;"/>
    <path clip-path="url(#pc4403b5cac)" d="M 768.034286 287.94 
L 768.034286 268.98 
L 777.6 268.98 
L 777.6 287.94 
L 768.034286 287.94 
z
" style="fill:#f0e156;stroke:#000000;"/>
   </g>
   <g id="BrokenBarHCollection_5">
    <path clip-path="url(#pc4403b5cac)" d="M 184.525714 311.64 
L 184.525714 292.68 
L 213.222857 292.68 
L 213.222857 311.64 
L 184.525714 311.64 
z
" style="fill:#f56670;stroke:#000000;"/>
    <path clip-path="url(#pc4403b5cac)" d="M 213.222857 311.64 
L 213.222857 292.68 
L 251.485714 292.68 
L 251.485714 311.64 
L 213.222857 311.64 
z
" style="fill:#f56670;stroke:#000000;"/>
    <path clip-path="url(#pc4403b5cac)" d="M 289.748571 311.64 
L 289.748571 292.68 
L 347.142857 292.68 
L 347.142857 311.64 
L 289.748571 311.64 
z
" style="fill:#f56670;stroke:#000000;"/>
    <path clip-path="url(#pc4403b5cac)" d="M 414.102857 311.64 
L 414.102857 292.68 
L 442.8 292.68 
L 442.8 311.64 
L 414.102857 311.64 
z
" style="fill:#f56670;stroke:#000000;"/>
    <path clip-path="url(#pc4403b5cac)" d="M 557.588571 311.64 
L 557.588571 292.68 
L 643.68 292.68 
L 643.68 311.64 
L 557.588571 311.64 
z
" style="fill:#f56670;stroke:#000000;"/>
   </g>
   <g id="BrokenBarHCollection_6">
    <path clip-path="url(#pc4403b5cac)" d="M 251.485714 335.34 
L 251.485714 316.38 
L 289.748571 316.38 
L 289.748571 335.34 
L 251.485714 335.34 
z
" style="fill:#16bfe0;stroke:#000000;"/>
    <path clip-path="url(#pc4403b5cac)" d="M 347.142857 335.34 
L 347.142857 316.38 
L 366.274286 316.38 
L 366.274286 335.34 
L 347.142857 335.34 
z
" style="fill:#16bfe0;stroke:#000000;"/>
    <path clip-path="url(#pc4403b5cac)" d="M 442.8 335.34 
L 442.8 316.38 
L 509.76 316.38 
L 509.76 335.34 
L 442.8 335.34 
z
" style="fill:#16bfe0;stroke:#000000;"/>
    <path clip-path="url(#pc4403b5cac)" d="M 643.68 335.34 
L 643.68 316.38 
L 662.811429 316.38 
L 662.811429 335.34 
L 643.68 335.34 
z
" style="fill:#16bfe0;stroke:#000000;"/>
    <path clip-path="url(#pc4403b5cac)" d="M 662.811429 335.34 
L 662.811429 316.38 
L 748.902857 316.38 
L 748.902857 335.34 
L 662.811429 335.34 
z
" style="fill:#16bfe0;stroke:#000000;"/>
   </g>
   <g id="BrokenBarHCollection_7">
    <defs>
     <path d="M 241.92 -659.673 
L 241.92 -663.228 
L 366.274286 -663.228 
L 366.274286 -659.673 
L 241.92 -659.673 
z
" id="mbea3ca55af" style="stroke:#d1c97d;"/>
    </defs>
    <g clip-path="url(#pc4403b5cac)">
     <use style="fill:#f2eaa0;stroke:#d1c97d;" x="0" xlink:href="#mbea3ca55af" y="936"/>
    </g>
   </g>
   <g id="BrokenBarHCollection_8">
    <defs>
     <path d="M 423.668571 -655.881 
L 423.668571 -659.436 
L 509.76 -659.436 
L 509.76 -655.881 
L 423.668571 -655.881 
z
" id="mdad457b3f1" style="stroke:#d1c97d;"/>
    </defs>
    <g clip-path="url(#pc4403b5cac)">
     <use style="fill:#f2eaa0;stroke:#d1c97d;" x="0" xlink:href="#mdad457b3f1" y="936"/>
    </g>
   </g>
   <g id="BrokenBarHCollection_9">
    <defs>
     <path d="M 471.497143 -652.089 
L 471.497143 -655.644 
L 748.902857 -655.644 
L 748.902857 -652.089 
L 471.497143 -652.089 
z
" id="m25f56a1d94" style="stroke:#d1c97d;"/>
    </defs>
    <g clip-path="url(#pc4403b5cac)">
     <use style="fill:#f2eaa0;stroke:#d1c97d;" x="0" xlink:href="#m25f56a1d94" y="936"/>
    </g>
   </g>
   <g id="BrokenBarHCollection_10">
    <defs>
     <path d="M 557.588571 -648.297 
L 557.588571 -651.852 
L 768.034286 -651.852 
L 768.034286 -648.297 
L 557.588571 -648.297 
z
" id="md975ade349" style="stroke:#d1c97d;"/>
    </defs>
    <g clip-path="url(#pc4403b5cac)">
     <use style="fill:#f2eaa0;stroke:#d1c97d;" x="0" xlink:href="#md975ade349" y="936"/>
    </g>
   </g>
   <g id="BrokenBarHCollection_11">
    <defs>
     <path d="M 117.565714 -639.765 
L 117.565714 -643.32 
L 184.525714 -643.32 
L 184.525714 -639.765 
L 117.565714 -639.765 
z
" id="m75113bd7de" style="stroke:#db8489;"/>
    </defs>
    <g clip-path="url(#pc4403b5cac)">
     <use style="fill:#f7b1b6;stroke:#db8489;" x="0" xlink:href="#m75113bd7de" y="936"/>
    </g>
   </g>
   <g id="BrokenBarHCollection_12">
    <defs>
     <path d="M 155.828571 -635.973 
L 155.828571 -639.528 
L 213.222857 -639.528 
L 213.222857 -635.973 
L 155.828571 -635.973 
z
" id="m2ad1789139" style="stroke:#db8489;"/>
    </defs>
    <g clip-path="url(#pc4403b5cac)">
     <use style="fill:#f7b1b6;stroke:#db8489;" x="0" xlink:href="#m2ad1789139" y="936"/>
    </g>
   </g>
   <g id="BrokenBarHCollection_13">
    <defs>
     <path d="M 194.091429 -632.181 
L 194.091429 -635.736 
L 289.748571 -635.736 
L 289.748571 -632.181 
L 194.091429 -632.181 
z
" id="m370d43168f" style="stroke:#db8489;"/>
    </defs>
    <g clip-path="url(#pc4403b5cac)">
     <use style="fill:#f7b1b6;stroke:#db8489;" x="0" xlink:href="#m370d43168f" y="936"/>
    </g>
   </g>
   <g id="BrokenBarHCollection_14">
    <defs>
     <path d="M 289.748571 -628.389 
L 289.748571 -631.944 
L 414.102857 -631.944 
L 414.102857 -628.389 
L 289.748571 -628.389 
z
" id="m757a3c26b7" style="stroke:#db8489;"/>
    </defs>
    <g clip-path="url(#pc4403b5cac)">
     <use style="fill:#f7b1b6;stroke:#db8489;" x="0" xlink:href="#m757a3c26b7" y="936"/>
    </g>
   </g>
   <g id="BrokenBarHCollection_15">
    <defs>
     <path d="M 423.668571 -624.597 
L 423.668571 -628.152 
L 557.588571 -628.152 
L 557.588571 -624.597 
L 423.668571 -624.597 
z
" id="m1157d03a0b" style="stroke:#db8489;"/>
    </defs>
    <g clip-path="url(#pc4403b5cac)">
     <use style="fill:#f7b1b6;stroke:#db8489;" x="0" xlink:href="#m1157d03a0b" y="936"/>
    </g>
   </g>
   <g id="BrokenBarHCollection_16">
    <defs>
     <path d="M 155.828571 -616.065 
L 155.828571 -619.62 
L 251.485714 -619.62 
L 251.485714 -616.065 
L 155.828571 -616.065 
z
" id="m2d35fc6feb" style="stroke:#77c8d9;"/>
    </defs>
    <g clip-path="url(#pc4403b5cac)">
     <use style="fill:#8de1f2;stroke:#77c8d9;" x="0" xlink:href="#m2d35fc6feb" y="936"/>
    </g>
   </g>
   <g id="BrokenBarHCollection_17">
    <defs>
     <path d="M 241.92 -612.273 
L 241.92 -615.828 
L 347.142857 -615.828 
L 347.142857 -612.273 
L 241.92 -612.273 
z
" id="m499d82fdfa" style="stroke:#77c8d9;"/>
    </defs>
    <g clip-path="url(#pc4403b5cac)">
     <use style="fill:#8de1f2;stroke:#77c8d9;" x="0" xlink:href="#m499d82fdfa" y="936"/>
    </g>
   </g>
   <g id="BrokenBarHCollection_18">
    <defs>
     <path d="M 385.405714 -608.481 
L 385.405714 -612.036 
L 442.8 -612.036 
L 442.8 -608.481 
L 385.405714 -608.481 
z
" id="m301ddbe8de" style="stroke:#77c8d9;"/>
    </defs>
    <g clip-path="url(#pc4403b5cac)">
     <use style="fill:#8de1f2;stroke:#77c8d9;" x="0" xlink:href="#m301ddbe8de" y="936"/>
    </g>
   </g>
   <g id="BrokenBarHCollection_19">
    <defs>
     <path d="M 452.365714 -604.689 
L 452.365714 -608.244 
L 643.68 -608.244 
L 643.68 -604.689 
L 452.365714 -604.689 
z
" id="mb61ff706df" style="stroke:#77c8d9;"/>
    </defs>
    <g clip-path="url(#pc4403b5cac)">
     <use style="fill:#8de1f2;stroke:#77c8d9;" x="0" xlink:href="#mb61ff706df" y="936"/>
    </g>
   </g>
   <g id="BrokenBarHCollection_20">
    <defs>
     <path d="M 471.497143 -600.897 
L 471.497143 -604.452 
L 662.811429 -604.452 
L 662.811429 -600.897 
L 471.497143 -600.897 
z
" id="m34008f7aed" style="stroke:#77c8d9;"/>
    </defs>
    <g clip-path="url(#pc4403b5cac)">
     <use style="fill:#8de1f2;stroke:#77c8d9;" x="0" xlink:href="#m34008f7aed" y="936"/>
    </g>
   </g>
   <g id="matplotlib.axis_3">
    <g id="xtick_9">
     <g id="line2d_12">
      <g>
       <use style="stroke:#000000;stroke-width:0.8;" x="108" xlink:href="#m58a79e5777" y="349.56"/>
      </g>
     </g>
     <g id="text_14">
      <!-- 0 -->
      <g transform="translate(104.81875 364.158437)scale(0.1 -0.1)">
       <use xlink:href="#DejaVuSans-48"/>
      </g>
     </g>
    </g>
    <g id="xtick_10">
     <g id="line2d_13">
      <g>
       <use style="stroke:#000000;stroke-width:0.8;" x="203.657143" xlink:href="#m58a79e5777" y="349.56"/>
      </g>
     </g>
     <g id="text_15">
      <!-- 10 -->
      <g transform="translate(197.294643 364.158437)scale(0.1 -0.1)">
       <use xlink:href="#DejaVuSans-49"/>
       <use x="63.623047" xlink:href="#DejaVuSans-48"/>
      </g>
     </g>
    </g>
    <g id="xtick_11">
     <g id="line2d_14">
      <g>
       <use style="stroke:#000000;stroke-width:0.8;" x="299.314286" xlink:href="#m58a79e5777" y="349.56"/>
      </g>
     </g>
     <g id="text_16">
      <!-- 20 -->
      <g transform="translate(292.951786 364.158437)scale(0.1 -0.1)">
       <use xlink:href="#DejaVuSans-50"/>
       <use x="63.623047" xlink:href="#DejaVuSans-48"/>
      </g>
     </g>
    </g>
    <g id="xtick_12">
     <g id="line2d_15">
      <g>
       <use style="stroke:#000000;stroke-width:0.8;" x="394.971429" xlink:href="#m58a79e5777" y="349.56"/>
      </g>
     </g>
     <g id="text_17">
      <!-- 30 -->
      <g transform="translate(388.608929 364.158437)scale(0.1 -0.1)">
       <use xlink:href="#DejaVuSans-51"/>
       <use x="63.623047" xlink:href="#DejaVuSans-48"/>
      </g>
     </g>
    </g>
    <g id="xtick_13">
     <g id="line2d_16">
      <g>
       <use style="stroke:#000000;stroke-width:0.8;" x="490.628571" xlink:href="#m58a79e5777" y="349.56"/>
      </g>
     </g>
     <g id="text_18">
      <!-- 40 -->
      <g transform="translate(484.266071 364.158437)scale(0.1 -0.1)">
       <use xlink:href="#DejaVuSans-52"/>
       <use x="63.623047" xlink:href="#DejaVuSans-48"/>
      </g>
     </g>
    </g>
    <g id="xtick_14">
     <g id="line2d_17">
      <g>
       <use style="stroke:#000000;stroke-width:0.8;" x="586.285714" xlink:href="#m58a79e5777" y="349.56"/>
      </g>
     </g>
     <g id="text_19">
      <!-- 50 -->
      <g transform="translate(579.923214 364.158437)scale(0.1 -0.1)">
       <use xlink:href="#DejaVuSans-53"/>
       <use x="63.623047" xlink:href="#DejaVuSans-48"/>
      </g>
     </g>
    </g>
    <g id="xtick_15">
     <g id="line2d_18">
      <g>
       <use style="stroke:#000000;stroke-width:0.8;" x="681.942857" xlink:href="#m58a79e5777" y="349.56"/>
      </g>
     </g>
     <g id="text_20">
      <!-- 60 -->
      <g transform="translate(675.580357 364.158437)scale(0.1 -0.1)">
       <use xlink:href="#DejaVuSans-54"/>
       <use x="63.623047" xlink:href="#DejaVuSans-48"/>
      </g>
     </g>
    </g>
    <g id="xtick_16">
     <g id="line2d_19">
      <g>
       <use style="stroke:#000000;stroke-width:0.8;" x="777.6" xlink:href="#m58a79e5777" y="349.56"/>
      </g>
     </g>
     <g id="text_21">
      <!-- 70 -->
      <g transform="translate(771.2375 364.158437)scale(0.1 -0.1)">
       <use xlink:href="#DejaVuSans-55"/>
       <use x="63.623047" xlink:href="#DejaVuSans-48"/>
      </g>
     </g>
    </g>
    <g id="text_22">
     <!-- Zeit -->
     <g transform="translate(432.949219 377.836563)scale(0.1 -0.1)">
      <use xlink:href="#DejaVuSans-90"/>
      <use x="68.505859" xlink:href="#DejaVuSans-101"/>
      <use x="130.029297" xlink:href="#DejaVuSans-105"/>
      <use x="157.8125" xlink:href="#DejaVuSans-116"/>
     </g>
    </g>
   </g>
   <g id="matplotlib.axis_4">
    <g id="ytick_4">
     <g id="line2d_20">
      <g>
       <use style="stroke:#000000;stroke-width:0.8;" x="108" xlink:href="#m7d9be4e03e" y="325.86"/>
      </g>
     </g>
     <g id="text_23">
      <!-- Quelle 3 -->
      <g transform="translate(59.3875 329.659219)scale(0.1 -0.1)">
       <use xlink:href="#DejaVuSans-81"/>
       <use x="78.710938" xlink:href="#DejaVuSans-117"/>
       <use x="142.089844" xlink:href="#DejaVuSans-101"/>
       <use x="203.613281" xlink:href="#DejaVuSans-108"/>
       <use x="231.396484" xlink:href="#DejaVuSans-108"/>
       <use x="259.179688" xlink:href="#DejaVuSans-101"/>
       <use x="320.703125" xlink:href="#DejaVuSans-32"/>
       <use x="352.490234" xlink:href="#DejaVuSans-51"/>
      </g>
     </g>
    </g>
    <g id="ytick_5">
     <g id="line2d_21">
      <g>
       <use style="stroke:#000000;stroke-width:0.8;" x="108" xlink:href="#m7d9be4e03e" y="302.16"/>
      </g>
     </g>
     <g id="text_24">
      <!-- Quelle 2 -->
      <g transform="translate(59.3875 305.959219)scale(0.1 -0.1)">
       <use xlink:href="#DejaVuSans-81"/>
       <use x="78.710938" xlink:href="#DejaVuSans-117"/>
       <use x="142.089844" xlink:href="#DejaVuSans-101"/>
       <use x="203.613281" xlink:href="#DejaVuSans-108"/>
       <use x="231.396484" xlink:href="#DejaVuSans-108"/>
       <use x="259.179688" xlink:href="#DejaVuSans-101"/>
       <use x="320.703125" xlink:href="#DejaVuSans-32"/>
       <use x="352.490234" xlink:href="#DejaVuSans-50"/>
      </g>
     </g>
    </g>
    <g id="ytick_6">
     <g id="line2d_22">
      <g>
       <use style="stroke:#000000;stroke-width:0.8;" x="108" xlink:href="#m7d9be4e03e" y="278.46"/>
      </g>
     </g>
     <g id="text_25">
      <!-- Quelle 1 -->
      <g transform="translate(59.3875 282.259219)scale(0.1 -0.1)">
       <use xlink:href="#DejaVuSans-81"/>
       <use x="78.710938" xlink:href="#DejaVuSans-117"/>
       <use x="142.089844" xlink:href="#DejaVuSans-101"/>
       <use x="203.613281" xlink:href="#DejaVuSans-108"/>
       <use x="231.396484" xlink:href="#DejaVuSans-108"/>
       <use x="259.179688" xlink:href="#DejaVuSans-101"/>
       <use x="320.703125" xlink:href="#DejaVuSans-32"/>
       <use x="352.490234" xlink:href="#DejaVuSans-49"/>
      </g>
     </g>
    </g>
   </g>
   <g id="patch_8">
    <path d="M 108 349.56 
L 108 254.76 
" style="fill:none;stroke:#000000;stroke-linecap:square;stroke-linejoin:miter;stroke-width:0.8;"/>
   </g>
   <g id="patch_9">
    <path d="M 777.6 349.56 
L 777.6 254.76 
" style="fill:none;stroke:#000000;stroke-linecap:square;stroke-linejoin:miter;stroke-width:0.8;"/>
   </g>
   <g id="patch_10">
    <path d="M 108 349.56 
L 777.6 349.56 
" style="fill:none;stroke:#000000;stroke-linecap:square;stroke-linejoin:miter;stroke-width:0.8;"/>
   </g>
   <g id="patch_11">
    <path d="M 108 254.76 
L 777.6 254.76 
" style="fill:none;stroke:#000000;stroke-linecap:square;stroke-linejoin:miter;stroke-width:0.8;"/>
   </g>
   <g id="text_26">
    <!-- Round-Robin -->
    <g transform="translate(404.802188 248.76)scale(0.12 -0.12)">
     <defs>
      <path d="M 44.390625 34.1875 
Q 47.5625 33.109375 50.5625 29.59375 
Q 53.5625 26.078125 56.59375 19.921875 
L 66.609375 0 
L 56 0 
L 46.6875 18.703125 
Q 43.0625 26.03125 39.671875 28.421875 
Q 36.28125 30.8125 30.421875 30.8125 
L 19.671875 30.8125 
L 19.671875 0 
L 9.8125 0 
L 9.8125 72.90625 
L 32.078125 72.90625 
Q 44.578125 72.90625 50.734375 67.671875 
Q 56.890625 62.453125 56.890625 51.90625 
Q 56.890625 45.015625 53.6875 40.46875 
Q 50.484375 35.9375 44.390625 34.1875 
z
M 19.671875 64.796875 
L 19.671875 38.921875 
L 32.078125 38.921875 
Q 39.203125 38.921875 42.84375 42.21875 
Q 46.484375 45.515625 46.484375 51.90625 
Q 46.484375 58.296875 42.84375 61.546875 
Q 39.203125 64.796875 32.078125 64.796875 
z
" id="DejaVuSans-82"/>
      <path d="M 30.609375 48.390625 
Q 23.390625 48.390625 19.1875 42.75 
Q 14.984375 37.109375 14.984375 27.296875 
Q 14.984375 17.484375 19.15625 11.84375 
Q 23.34375 6.203125 30.609375 6.203125 
Q 37.796875 6.203125 41.984375 11.859375 
Q 46.1875 17.53125 46.1875 27.296875 
Q 46.1875 37.015625 41.984375 42.703125 
Q 37.796875 48.390625 30.609375 48.390625 
z
M 30.609375 56 
Q 42.328125 56 49.015625 48.375 
Q 55.71875 40.765625 55.71875 27.296875 
Q 55.71875 13.875 49.015625 6.21875 
Q 42.328125 -1.421875 30.609375 -1.421875 
Q 18.84375 -1.421875 12.171875 6.21875 
Q 5.515625 13.875 5.515625 27.296875 
Q 5.515625 40.765625 12.171875 48.375 
Q 18.84375 56 30.609375 56 
z
" id="DejaVuSans-111"/>
      <path d="M 4.890625 31.390625 
L 31.203125 31.390625 
L 31.203125 23.390625 
L 4.890625 23.390625 
z
" id="DejaVuSans-45"/>
      <path d="M 48.6875 27.296875 
Q 48.6875 37.203125 44.609375 42.84375 
Q 40.53125 48.484375 33.40625 48.484375 
Q 26.265625 48.484375 22.1875 42.84375 
Q 18.109375 37.203125 18.109375 27.296875 
Q 18.109375 17.390625 22.1875 11.75 
Q 26.265625 6.109375 33.40625 6.109375 
Q 40.53125 6.109375 44.609375 11.75 
Q 48.6875 17.390625 48.6875 27.296875 
z
M 18.109375 46.390625 
Q 20.953125 51.265625 25.265625 53.625 
Q 29.59375 56 35.59375 56 
Q 45.5625 56 51.78125 48.09375 
Q 58.015625 40.1875 58.015625 27.296875 
Q 58.015625 14.40625 51.78125 6.484375 
Q 45.5625 -1.421875 35.59375 -1.421875 
Q 29.59375 -1.421875 25.265625 0.953125 
Q 20.953125 3.328125 18.109375 8.203125 
L 18.109375 0 
L 9.078125 0 
L 9.078125 75.984375 
L 18.109375 75.984375 
z
" id="DejaVuSans-98"/>
     </defs>
     <use xlink:href="#DejaVuSans-82"/>
     <use x="64.982422" xlink:href="#DejaVuSans-111"/>
     <use x="126.164062" xlink:href="#DejaVuSans-117"/>
     <use x="189.542969" xlink:href="#DejaVuSans-110"/>
     <use x="252.921875" xlink:href="#DejaVuSans-100"/>
     <use x="316.398438" xlink:href="#DejaVuSans-45"/>
     <use x="352.482422" xlink:href="#DejaVuSans-82"/>
     <use x="417.464844" xlink:href="#DejaVuSans-111"/>
     <use x="478.646484" xlink:href="#DejaVuSans-98"/>
     <use x="542.123047" xlink:href="#DejaVuSans-105"/>
     <use x="569.90625" xlink:href="#DejaVuSans-110"/>
    </g>
   </g>
  </g>
  <g id="axes_3">
   <g id="patch_12">
    <path d="M 108 510.72 
L 777.6 510.72 
L 777.6 415.92 
L 108 415.92 
z
" style="fill:#ffffff;"/>
   </g>
   <g id="BrokenBarHCollection_21">
    <path clip-path="url(#p31803f843d)" d="M 108 449.1 
L 108 430.14 
L 184.525714 430.14 
L 184.525714 449.1 
L 108 449.1 
z
" style="fill:#f0e156;stroke:#000000;"/>
    <path clip-path="url(#p31803f843d)" d="M 366.274286 449.1 
L 366.274286 430.14 
L 414.102857 430.14 
L 414.102857 449.1 
L 366.274286 449.1 
z
" style="fill:#f0e156;stroke:#000000;"/>
    <path clip-path="url(#p31803f843d)" d="M 509.76 449.1 
L 509.76 430.14 
L 557.588571 430.14 
L 557.588571 449.1 
L 509.76 449.1 
z
" style="fill:#f0e156;stroke:#000000;"/>
    <path clip-path="url(#p31803f843d)" d="M 662.811429 449.1 
L 662.811429 430.14 
L 681.942857 430.14 
L 681.942857 449.1 
L 662.811429 449.1 
z
" style="fill:#f0e156;stroke:#000000;"/>
    <path clip-path="url(#p31803f843d)" d="M 768.034286 449.1 
L 768.034286 430.14 
L 777.6 430.14 
L 777.6 449.1 
L 768.034286 449.1 
z
" style="fill:#f0e156;stroke:#000000;"/>
   </g>
   <g id="BrokenBarHCollection_22">
    <path clip-path="url(#p31803f843d)" d="M 184.525714 472.8 
L 184.525714 453.84 
L 213.222857 453.84 
L 213.222857 472.8 
L 184.525714 472.8 
z
" style="fill:#f56670;stroke:#000000;"/>
    <path clip-path="url(#p31803f843d)" d="M 251.485714 472.8 
L 251.485714 453.84 
L 289.748571 453.84 
L 289.748571 472.8 
L 251.485714 472.8 
z
" style="fill:#f56670;stroke:#000000;"/>
    <path clip-path="url(#p31803f843d)" d="M 289.748571 472.8 
L 289.748571 453.84 
L 347.142857 453.84 
L 347.142857 472.8 
L 289.748571 472.8 
z
" style="fill:#f56670;stroke:#000000;"/>
    <path clip-path="url(#p31803f843d)" d="M 414.102857 472.8 
L 414.102857 453.84 
L 442.8 453.84 
L 442.8 472.8 
L 414.102857 472.8 
z
" style="fill:#f56670;stroke:#000000;"/>
    <path clip-path="url(#p31803f843d)" d="M 557.588571 472.8 
L 557.588571 453.84 
L 643.68 453.84 
L 643.68 472.8 
L 557.588571 472.8 
z
" style="fill:#f56670;stroke:#000000;"/>
   </g>
   <g id="BrokenBarHCollection_23">
    <path clip-path="url(#p31803f843d)" d="M 213.222857 496.5 
L 213.222857 477.54 
L 251.485714 477.54 
L 251.485714 496.5 
L 213.222857 496.5 
z
" style="fill:#16bfe0;stroke:#000000;"/>
    <path clip-path="url(#p31803f843d)" d="M 347.142857 496.5 
L 347.142857 477.54 
L 366.274286 477.54 
L 366.274286 496.5 
L 347.142857 496.5 
z
" style="fill:#16bfe0;stroke:#000000;"/>
    <path clip-path="url(#p31803f843d)" d="M 442.8 496.5 
L 442.8 477.54 
L 509.76 477.54 
L 509.76 496.5 
L 442.8 496.5 
z
" style="fill:#16bfe0;stroke:#000000;"/>
    <path clip-path="url(#p31803f843d)" d="M 643.68 496.5 
L 643.68 477.54 
L 662.811429 477.54 
L 662.811429 496.5 
L 643.68 496.5 
z
" style="fill:#16bfe0;stroke:#000000;"/>
    <path clip-path="url(#p31803f843d)" d="M 681.942857 496.5 
L 681.942857 477.54 
L 768.034286 477.54 
L 768.034286 496.5 
L 681.942857 496.5 
z
" style="fill:#16bfe0;stroke:#000000;"/>
   </g>
   <g id="BrokenBarHCollection_24">
    <defs>
     <path d="M 241.92 -498.513 
L 241.92 -502.068 
L 366.274286 -502.068 
L 366.274286 -498.513 
L 241.92 -498.513 
z
" id="m65192f290a" style="stroke:#d1c97d;"/>
    </defs>
    <g clip-path="url(#p31803f843d)">
     <use style="fill:#f2eaa0;stroke:#d1c97d;" x="0" xlink:href="#m65192f290a" y="936"/>
    </g>
   </g>
   <g id="BrokenBarHCollection_25">
    <defs>
     <path d="M 423.668571 -494.721 
L 423.668571 -498.276 
L 509.76 -498.276 
L 509.76 -494.721 
L 423.668571 -494.721 
z
" id="m895d33cc28" style="stroke:#d1c97d;"/>
    </defs>
    <g clip-path="url(#p31803f843d)">
     <use style="fill:#f2eaa0;stroke:#d1c97d;" x="0" xlink:href="#m895d33cc28" y="936"/>
    </g>
   </g>
   <g id="BrokenBarHCollection_26">
    <defs>
     <path d="M 471.497143 -490.929 
L 471.497143 -494.484 
L 662.811429 -494.484 
L 662.811429 -490.929 
L 471.497143 -490.929 
z
" id="ma20c088ab4" style="stroke:#d1c97d;"/>
    </defs>
    <g clip-path="url(#p31803f843d)">
     <use style="fill:#f2eaa0;stroke:#d1c97d;" x="0" xlink:href="#ma20c088ab4" y="936"/>
    </g>
   </g>
   <g id="BrokenBarHCollection_27">
    <defs>
     <path d="M 557.588571 -487.137 
L 557.588571 -490.692 
L 768.034286 -490.692 
L 768.034286 -487.137 
L 557.588571 -487.137 
z
" id="md6042b6c58" style="stroke:#d1c97d;"/>
    </defs>
    <g clip-path="url(#p31803f843d)">
     <use style="fill:#f2eaa0;stroke:#d1c97d;" x="0" xlink:href="#md6042b6c58" y="936"/>
    </g>
   </g>
   <g id="BrokenBarHCollection_28">
    <defs>
     <path d="M 117.565714 -478.605 
L 117.565714 -482.16 
L 184.525714 -482.16 
L 184.525714 -478.605 
L 117.565714 -478.605 
z
" id="m8d6918793c" style="stroke:#db8489;"/>
    </defs>
    <g clip-path="url(#p31803f843d)">
     <use style="fill:#f7b1b6;stroke:#db8489;" x="0" xlink:href="#m8d6918793c" y="936"/>
    </g>
   </g>
   <g id="BrokenBarHCollection_29">
    <defs>
     <path d="M 155.828571 -474.813 
L 155.828571 -478.368 
L 251.485714 -478.368 
L 251.485714 -474.813 
L 155.828571 -474.813 
z
" id="m124e42825f" style="stroke:#db8489;"/>
    </defs>
    <g clip-path="url(#p31803f843d)">
     <use style="fill:#f7b1b6;stroke:#db8489;" x="0" xlink:href="#m124e42825f" y="936"/>
    </g>
   </g>
   <g id="BrokenBarHCollection_30">
    <defs>
     <path d="M 194.091429 -471.021 
L 194.091429 -474.576 
L 289.748571 -474.576 
L 289.748571 -471.021 
L 194.091429 -471.021 
z
" id="mf20921fa4e" style="stroke:#db8489;"/>
    </defs>
    <g clip-path="url(#p31803f843d)">
     <use style="fill:#f7b1b6;stroke:#db8489;" x="0" xlink:href="#mf20921fa4e" y="936"/>
    </g>
   </g>
   <g id="BrokenBarHCollection_31">
    <defs>
     <path d="M 289.748571 -467.229 
L 289.748571 -470.784 
L 414.102857 -470.784 
L 414.102857 -467.229 
L 289.748571 -467.229 
z
" id="m8e2869a2e8" style="stroke:#db8489;"/>
    </defs>
    <g clip-path="url(#p31803f843d)">
     <use style="fill:#f7b1b6;stroke:#db8489;" x="0" xlink:href="#m8e2869a2e8" y="936"/>
    </g>
   </g>
   <g id="BrokenBarHCollection_32">
    <defs>
     <path d="M 423.668571 -463.437 
L 423.668571 -466.992 
L 557.588571 -466.992 
L 557.588571 -463.437 
L 423.668571 -463.437 
z
" id="me7f952c900" style="stroke:#db8489;"/>
    </defs>
    <g clip-path="url(#p31803f843d)">
     <use style="fill:#f7b1b6;stroke:#db8489;" x="0" xlink:href="#me7f952c900" y="936"/>
    </g>
   </g>
   <g id="BrokenBarHCollection_33">
    <defs>
     <path d="M 155.828571 -454.905 
L 155.828571 -458.46 
L 213.222857 -458.46 
L 213.222857 -454.905 
L 155.828571 -454.905 
z
" id="m8253de2fa2" style="stroke:#77c8d9;"/>
    </defs>
    <g clip-path="url(#p31803f843d)">
     <use style="fill:#8de1f2;stroke:#77c8d9;" x="0" xlink:href="#m8253de2fa2" y="936"/>
    </g>
   </g>
   <g id="BrokenBarHCollection_34">
    <defs>
     <path d="M 241.92 -451.113 
L 241.92 -454.668 
L 347.142857 -454.668 
L 347.142857 -451.113 
L 241.92 -451.113 
z
" id="m10494c2d89" style="stroke:#77c8d9;"/>
    </defs>
    <g clip-path="url(#p31803f843d)">
     <use style="fill:#8de1f2;stroke:#77c8d9;" x="0" xlink:href="#m10494c2d89" y="936"/>
    </g>
   </g>
   <g id="BrokenBarHCollection_35">
    <defs>
     <path d="M 385.405714 -447.321 
L 385.405714 -450.876 
L 442.8 -450.876 
L 442.8 -447.321 
L 385.405714 -447.321 
z
" id="m2946b10814" style="stroke:#77c8d9;"/>
    </defs>
    <g clip-path="url(#p31803f843d)">
     <use style="fill:#8de1f2;stroke:#77c8d9;" x="0" xlink:href="#m2946b10814" y="936"/>
    </g>
   </g>
   <g id="BrokenBarHCollection_36">
    <defs>
     <path d="M 452.365714 -443.529 
L 452.365714 -447.084 
L 643.68 -447.084 
L 643.68 -443.529 
L 452.365714 -443.529 
z
" id="mca5b29b8a6" style="stroke:#77c8d9;"/>
    </defs>
    <g clip-path="url(#p31803f843d)">
     <use style="fill:#8de1f2;stroke:#77c8d9;" x="0" xlink:href="#mca5b29b8a6" y="936"/>
    </g>
   </g>
   <g id="BrokenBarHCollection_37">
    <defs>
     <path d="M 471.497143 -439.737 
L 471.497143 -443.292 
L 681.942857 -443.292 
L 681.942857 -439.737 
L 471.497143 -439.737 
z
" id="m595fb32cb0" style="stroke:#77c8d9;"/>
    </defs>
    <g clip-path="url(#p31803f843d)">
     <use style="fill:#8de1f2;stroke:#77c8d9;" x="0" xlink:href="#m595fb32cb0" y="936"/>
    </g>
   </g>
   <g id="matplotlib.axis_5">
    <g id="xtick_17">
     <g id="line2d_23">
      <g>
       <use style="stroke:#000000;stroke-width:0.8;" x="108" xlink:href="#m58a79e5777" y="510.72"/>
      </g>
     </g>
     <g id="text_27">
      <!-- 0 -->
      <g transform="translate(104.81875 525.318437)scale(0.1 -0.1)">
       <use xlink:href="#DejaVuSans-48"/>
      </g>
     </g>
    </g>
    <g id="xtick_18">
     <g id="line2d_24">
      <g>
       <use style="stroke:#000000;stroke-width:0.8;" x="203.657143" xlink:href="#m58a79e5777" y="510.72"/>
      </g>
     </g>
     <g id="text_28">
      <!-- 10 -->
      <g transform="translate(197.294643 525.318437)scale(0.1 -0.1)">
       <use xlink:href="#DejaVuSans-49"/>
       <use x="63.623047" xlink:href="#DejaVuSans-48"/>
      </g>
     </g>
    </g>
    <g id="xtick_19">
     <g id="line2d_25">
      <g>
       <use style="stroke:#000000;stroke-width:0.8;" x="299.314286" xlink:href="#m58a79e5777" y="510.72"/>
      </g>
     </g>
     <g id="text_29">
      <!-- 20 -->
      <g transform="translate(292.951786 525.318437)scale(0.1 -0.1)">
       <use xlink:href="#DejaVuSans-50"/>
       <use x="63.623047" xlink:href="#DejaVuSans-48"/>
      </g>
     </g>
    </g>
    <g id="xtick_20">
     <g id="line2d_26">
      <g>
       <use style="stroke:#000000;stroke-width:0.8;" x="394.971429" xlink:href="#m58a79e5777" y="510.72"/>
      </g>
     </g>
     <g id="text_30">
      <!-- 30 -->
      <g transform="translate(388.608929 525.318437)scale(0.1 -0.1)">
       <use xlink:href="#DejaVuSans-51"/>
       <use x="63.623047" xlink:href="#DejaVuSans-48"/>
      </g>
     </g>
    </g>
    <g id="xtick_21">
     <g id="line2d_27">
      <g>
       <use style="stroke:#000000;stroke-width:0.8;" x="490.628571" xlink:href="#m58a79e5777" y="510.72"/>
      </g>
     </g>
     <g id="text_31">
      <!-- 40 -->
      <g transform="translate(484.266071 525.318437)scale(0.1 -0.1)">
       <use xlink:href="#DejaVuSans-52"/>
       <use x="63.623047" xlink:href="#DejaVuSans-48"/>
      </g>
     </g>
    </g>
    <g id="xtick_22">
     <g id="line2d_28">
      <g>
       <use style="stroke:#000000;stroke-width:0.8;" x="586.285714" xlink:href="#m58a79e5777" y="510.72"/>
      </g>
     </g>
     <g id="text_32">
      <!-- 50 -->
      <g transform="translate(579.923214 525.318437)scale(0.1 -0.1)">
       <use xlink:href="#DejaVuSans-53"/>
       <use x="63.623047" xlink:href="#DejaVuSans-48"/>
      </g>
     </g>
    </g>
    <g id="xtick_23">
     <g id="line2d_29">
      <g>
       <use style="stroke:#000000;stroke-width:0.8;" x="681.942857" xlink:href="#m58a79e5777" y="510.72"/>
      </g>
     </g>
     <g id="text_33">
      <!-- 60 -->
      <g transform="translate(675.580357 525.318437)scale(0.1 -0.1)">
       <use xlink:href="#DejaVuSans-54"/>
       <use x="63.623047" xlink:href="#DejaVuSans-48"/>
      </g>
     </g>
    </g>
    <g id="xtick_24">
     <g id="line2d_30">
      <g>
       <use style="stroke:#000000;stroke-width:0.8;" x="777.6" xlink:href="#m58a79e5777" y="510.72"/>
      </g>
     </g>
     <g id="text_34">
      <!-- 70 -->
      <g transform="translate(771.2375 525.318437)scale(0.1 -0.1)">
       <use xlink:href="#DejaVuSans-55"/>
       <use x="63.623047" xlink:href="#DejaVuSans-48"/>
      </g>
     </g>
    </g>
    <g id="text_35">
     <!-- Zeit -->
     <g transform="translate(432.949219 538.996562)scale(0.1 -0.1)">
      <use xlink:href="#DejaVuSans-90"/>
      <use x="68.505859" xlink:href="#DejaVuSans-101"/>
      <use x="130.029297" xlink:href="#DejaVuSans-105"/>
      <use x="157.8125" xlink:href="#DejaVuSans-116"/>
     </g>
    </g>
   </g>
   <g id="matplotlib.axis_6">
    <g id="ytick_7">
     <g id="line2d_31">
      <g>
       <use style="stroke:#000000;stroke-width:0.8;" x="108" xlink:href="#m7d9be4e03e" y="487.02"/>
      </g>
     </g>
     <g id="text_36">
      <!-- Quelle 3 -->
      <g transform="translate(59.3875 490.819219)scale(0.1 -0.1)">
       <use xlink:href="#DejaVuSans-81"/>
       <use x="78.710938" xlink:href="#DejaVuSans-117"/>
       <use x="142.089844" xlink:href="#DejaVuSans-101"/>
       <use x="203.613281" xlink:href="#DejaVuSans-108"/>
       <use x="231.396484" xlink:href="#DejaVuSans-108"/>
       <use x="259.179688" xlink:href="#DejaVuSans-101"/>
       <use x="320.703125" xlink:href="#DejaVuSans-32"/>
       <use x="352.490234" xlink:href="#DejaVuSans-51"/>
      </g>
     </g>
    </g>
    <g id="ytick_8">
     <g id="line2d_32">
      <g>
       <use style="stroke:#000000;stroke-width:0.8;" x="108" xlink:href="#m7d9be4e03e" y="463.32"/>
      </g>
     </g>
     <g id="text_37">
      <!-- Quelle 2 -->
      <g transform="translate(59.3875 467.119219)scale(0.1 -0.1)">
       <use xlink:href="#DejaVuSans-81"/>
       <use x="78.710938" xlink:href="#DejaVuSans-117"/>
       <use x="142.089844" xlink:href="#DejaVuSans-101"/>
       <use x="203.613281" xlink:href="#DejaVuSans-108"/>
       <use x="231.396484" xlink:href="#DejaVuSans-108"/>
       <use x="259.179688" xlink:href="#DejaVuSans-101"/>
       <use x="320.703125" xlink:href="#DejaVuSans-32"/>
       <use x="352.490234" xlink:href="#DejaVuSans-50"/>
      </g>
     </g>
    </g>
    <g id="ytick_9">
     <g id="line2d_33">
      <g>
       <use style="stroke:#000000;stroke-width:0.8;" x="108" xlink:href="#m7d9be4e03e" y="439.62"/>
      </g>
     </g>
     <g id="text_38">
      <!-- Quelle 1 -->
      <g transform="translate(59.3875 443.419219)scale(0.1 -0.1)">
       <use xlink:href="#DejaVuSans-81"/>
       <use x="78.710938" xlink:href="#DejaVuSans-117"/>
       <use x="142.089844" xlink:href="#DejaVuSans-101"/>
       <use x="203.613281" xlink:href="#DejaVuSans-108"/>
       <use x="231.396484" xlink:href="#DejaVuSans-108"/>
       <use x="259.179688" xlink:href="#DejaVuSans-101"/>
       <use x="320.703125" xlink:href="#DejaVuSans-32"/>
       <use x="352.490234" xlink:href="#DejaVuSans-49"/>
      </g>
     </g>
    </g>
   </g>
   <g id="patch_13">
    <path d="M 108 510.72 
L 108 415.92 
" style="fill:none;stroke:#000000;stroke-linecap:square;stroke-linejoin:miter;stroke-width:0.8;"/>
   </g>
   <g id="patch_14">
    <path d="M 777.6 510.72 
L 777.6 415.92 
" style="fill:none;stroke:#000000;stroke-linecap:square;stroke-linejoin:miter;stroke-width:0.8;"/>
   </g>
   <g id="patch_15">
    <path d="M 108 510.72 
L 777.6 510.72 
" style="fill:none;stroke:#000000;stroke-linecap:square;stroke-linejoin:miter;stroke-width:0.8;"/>
   </g>
   <g id="patch_16">
    <path d="M 108 415.92 
L 777.6 415.92 
" style="fill:none;stroke:#000000;stroke-linecap:square;stroke-linejoin:miter;stroke-width:0.8;"/>
   </g>
   <g id="text_39">
    <!-- Fair Queuing -->
    <g transform="translate(404.880938 409.92)scale(0.12 -0.12)">
     <defs>
      <path d="M 9.8125 72.90625 
L 51.703125 72.90625 
L 51.703125 64.59375 
L 19.671875 64.59375 
L 19.671875 43.109375 
L 48.578125 43.109375 
L 48.578125 34.8125 
L 19.671875 34.8125 
L 19.671875 0 
L 9.8125 0 
z
" id="DejaVuSans-70"/>
      <path d="M 45.40625 27.984375 
Q 45.40625 37.75 41.375 43.109375 
Q 37.359375 48.484375 30.078125 48.484375 
Q 22.859375 48.484375 18.828125 43.109375 
Q 14.796875 37.75 14.796875 27.984375 
Q 14.796875 18.265625 18.828125 12.890625 
Q 22.859375 7.515625 30.078125 7.515625 
Q 37.359375 7.515625 41.375 12.890625 
Q 45.40625 18.265625 45.40625 27.984375 
z
M 54.390625 6.78125 
Q 54.390625 -7.171875 48.1875 -13.984375 
Q 42 -20.796875 29.203125 -20.796875 
Q 24.46875 -20.796875 20.265625 -20.09375 
Q 16.0625 -19.390625 12.109375 -17.921875 
L 12.109375 -9.1875 
Q 16.0625 -11.328125 19.921875 -12.34375 
Q 23.78125 -13.375 27.78125 -13.375 
Q 36.625 -13.375 41.015625 -8.765625 
Q 45.40625 -4.15625 45.40625 5.171875 
L 45.40625 9.625 
Q 42.625 4.78125 38.28125 2.390625 
Q 33.9375 0 27.875 0 
Q 17.828125 0 11.671875 7.65625 
Q 5.515625 15.328125 5.515625 27.984375 
Q 5.515625 40.671875 11.671875 48.328125 
Q 17.828125 56 27.875 56 
Q 33.9375 56 38.28125 53.609375 
Q 42.625 51.21875 45.40625 46.390625 
L 45.40625 54.6875 
L 54.390625 54.6875 
z
" id="DejaVuSans-103"/>
     </defs>
     <use xlink:href="#DejaVuSans-70"/>
     <use x="48.394531" xlink:href="#DejaVuSans-97"/>
     <use x="109.673828" xlink:href="#DejaVuSans-105"/>
     <use x="137.457031" xlink:href="#DejaVuSans-114"/>
     <use x="178.570312" xlink:href="#DejaVuSans-32"/>
     <use x="210.357422" xlink:href="#DejaVuSans-81"/>
     <use x="289.068359" xlink:href="#DejaVuSans-117"/>
     <use x="352.447266" xlink:href="#DejaVuSans-101"/>
     <use x="413.970703" xlink:href="#DejaVuSans-117"/>
     <use x="477.349609" xlink:href="#DejaVuSans-105"/>
     <use x="505.132812" xlink:href="#DejaVuSans-110"/>
     <use x="568.511719" xlink:href="#DejaVuSans-103"/>
    </g>
   </g>
  </g>
  <g id="axes_4">
   <g id="patch_17">
    <path d="M 108 671.88 
L 777.6 671.88 
L 777.6 577.08 
L 108 577.08 
z
" style="fill:#ffffff;"/>
   </g>
   <g id="PathCollection_1">
    <defs>
     <path d="M 0 3 
C 0.795609 3 1.55874 2.683901 2.12132 2.12132 
C 2.683901 1.55874 3 0.795609 3 0 
C 3 -0.795609 2.683901 -1.55874 2.12132 -2.12132 
C 1.55874 -2.683901 0.795609 -3 0 -3 
C -0.795609 -3 -1.55874 -2.683901 -2.12132 -2.12132 
C -2.683901 -1.55874 -3 -0.795609 -3 0 
C -3 0.795609 -2.683901 1.55874 -2.12132 2.12132 
C -1.55874 2.683901 -0.795609 3 0 3 
z
" id="m7bd1dade17" style="stroke:#1f77b4;"/>
    </defs>
    <g clip-path="url(#pa7a5c51860)">
     <use style="fill:#1f77b4;stroke:#1f77b4;" x="671.072727" xlink:href="#m7bd1dade17" y="667.570909"/>
     <use style="fill:#1f77b4;stroke:#1f77b4;" x="290.618182" xlink:href="#m7bd1dade17" y="646.768401"/>
     <use style="fill:#1f77b4;stroke:#1f77b4;" x="366.709091" xlink:href="#m7bd1dade17" y="649.740188"/>
     <use style="fill:#1f77b4;stroke:#1f77b4;" x="366.709091" xlink:href="#m7bd1dade17" y="637.853041"/>
     <use style="fill:#1f77b4;stroke:#1f77b4;" x="518.890909" xlink:href="#m7bd1dade17" y="637.853041"/>
     <use style="fill:#1f77b4;stroke:#1f77b4;" x="214.527273" xlink:href="#m7bd1dade17" y="634.881254"/>
     <use style="fill:#1f77b4;stroke:#1f77b4;" x="442.8" xlink:href="#m7bd1dade17" y="628.93768"/>
     <use style="fill:#1f77b4;stroke:#1f77b4;" x="290.618182" xlink:href="#m7bd1dade17" y="628.93768"/>
     <use style="fill:#1f77b4;stroke:#1f77b4;" x="594.981818" xlink:href="#m7bd1dade17" y="649.740188"/>
     <use style="fill:#1f77b4;stroke:#1f77b4;" x="442.8" xlink:href="#m7bd1dade17" y="640.824828"/>
     <use style="fill:#1f77b4;stroke:#1f77b4;" x="747.163636" xlink:href="#m7bd1dade17" y="625.965893"/>
     <use style="fill:#1f77b4;stroke:#1f77b4;" x="214.527273" xlink:href="#m7bd1dade17" y="608.135172"/>
     <use style="fill:#1f77b4;stroke:#1f77b4;" x="747.163636" xlink:href="#m7bd1dade17" y="608.135172"/>
     <use style="fill:#1f77b4;stroke:#1f77b4;" x="214.527273" xlink:href="#m7bd1dade17" y="581.389091"/>
     <use style="fill:#1f77b4;stroke:#1f77b4;" x="138.436364" xlink:href="#m7bd1dade17" y="602.191599"/>
    </g>
   </g>
   <g id="matplotlib.axis_7">
    <g id="xtick_25">
     <g id="line2d_34">
      <g>
       <use style="stroke:#000000;stroke-width:0.8;" x="138.436364" xlink:href="#m58a79e5777" y="671.88"/>
      </g>
     </g>
     <g id="text_40">
      <!-- 1 -->
      <g transform="translate(135.255114 686.478437)scale(0.1 -0.1)">
       <use xlink:href="#DejaVuSans-49"/>
      </g>
     </g>
    </g>
    <g id="xtick_26">
     <g id="line2d_35">
      <g>
       <use style="stroke:#000000;stroke-width:0.8;" x="214.527273" xlink:href="#m58a79e5777" y="671.88"/>
      </g>
     </g>
     <g id="text_41">
      <!-- 2 -->
      <g transform="translate(211.346023 686.478437)scale(0.1 -0.1)">
       <use xlink:href="#DejaVuSans-50"/>
      </g>
     </g>
    </g>
    <g id="xtick_27">
     <g id="line2d_36">
      <g>
       <use style="stroke:#000000;stroke-width:0.8;" x="290.618182" xlink:href="#m58a79e5777" y="671.88"/>
      </g>
     </g>
     <g id="text_42">
      <!-- 3 -->
      <g transform="translate(287.436932 686.478437)scale(0.1 -0.1)">
       <use xlink:href="#DejaVuSans-51"/>
      </g>
     </g>
    </g>
    <g id="xtick_28">
     <g id="line2d_37">
      <g>
       <use style="stroke:#000000;stroke-width:0.8;" x="366.709091" xlink:href="#m58a79e5777" y="671.88"/>
      </g>
     </g>
     <g id="text_43">
      <!-- 4 -->
      <g transform="translate(363.527841 686.478437)scale(0.1 -0.1)">
       <use xlink:href="#DejaVuSans-52"/>
      </g>
     </g>
    </g>
    <g id="xtick_29">
     <g id="line2d_38">
      <g>
       <use style="stroke:#000000;stroke-width:0.8;" x="442.8" xlink:href="#m58a79e5777" y="671.88"/>
      </g>
     </g>
     <g id="text_44">
      <!-- 5 -->
      <g transform="translate(439.61875 686.478437)scale(0.1 -0.1)">
       <use xlink:href="#DejaVuSans-53"/>
      </g>
     </g>
    </g>
    <g id="xtick_30">
     <g id="line2d_39">
      <g>
       <use style="stroke:#000000;stroke-width:0.8;" x="518.890909" xlink:href="#m58a79e5777" y="671.88"/>
      </g>
     </g>
     <g id="text_45">
      <!-- 6 -->
      <g transform="translate(515.709659 686.478437)scale(0.1 -0.1)">
       <use xlink:href="#DejaVuSans-54"/>
      </g>
     </g>
    </g>
    <g id="xtick_31">
     <g id="line2d_40">
      <g>
       <use style="stroke:#000000;stroke-width:0.8;" x="594.981818" xlink:href="#m58a79e5777" y="671.88"/>
      </g>
     </g>
     <g id="text_46">
      <!-- 7 -->
      <g transform="translate(591.800568 686.478437)scale(0.1 -0.1)">
       <use xlink:href="#DejaVuSans-55"/>
      </g>
     </g>
    </g>
    <g id="xtick_32">
     <g id="line2d_41">
      <g>
       <use style="stroke:#000000;stroke-width:0.8;" x="671.072727" xlink:href="#m58a79e5777" y="671.88"/>
      </g>
     </g>
     <g id="text_47">
      <!-- 8 -->
      <g transform="translate(667.891477 686.478437)scale(0.1 -0.1)">
       <defs>
        <path d="M 31.78125 34.625 
Q 24.75 34.625 20.71875 30.859375 
Q 16.703125 27.09375 16.703125 20.515625 
Q 16.703125 13.921875 20.71875 10.15625 
Q 24.75 6.390625 31.78125 6.390625 
Q 38.8125 6.390625 42.859375 10.171875 
Q 46.921875 13.96875 46.921875 20.515625 
Q 46.921875 27.09375 42.890625 30.859375 
Q 38.875 34.625 31.78125 34.625 
z
M 21.921875 38.8125 
Q 15.578125 40.375 12.03125 44.71875 
Q 8.5 49.078125 8.5 55.328125 
Q 8.5 64.0625 14.71875 69.140625 
Q 20.953125 74.21875 31.78125 74.21875 
Q 42.671875 74.21875 48.875 69.140625 
Q 55.078125 64.0625 55.078125 55.328125 
Q 55.078125 49.078125 51.53125 44.71875 
Q 48 40.375 41.703125 38.8125 
Q 48.828125 37.15625 52.796875 32.3125 
Q 56.78125 27.484375 56.78125 20.515625 
Q 56.78125 9.90625 50.3125 4.234375 
Q 43.84375 -1.421875 31.78125 -1.421875 
Q 19.734375 -1.421875 13.25 4.234375 
Q 6.78125 9.90625 6.78125 20.515625 
Q 6.78125 27.484375 10.78125 32.3125 
Q 14.796875 37.15625 21.921875 38.8125 
z
M 18.3125 54.390625 
Q 18.3125 48.734375 21.84375 45.5625 
Q 25.390625 42.390625 31.78125 42.390625 
Q 38.140625 42.390625 41.71875 45.5625 
Q 45.3125 48.734375 45.3125 54.390625 
Q 45.3125 60.0625 41.71875 63.234375 
Q 38.140625 66.40625 31.78125 66.40625 
Q 25.390625 66.40625 21.84375 63.234375 
Q 18.3125 60.0625 18.3125 54.390625 
z
" id="DejaVuSans-56"/>
       </defs>
       <use xlink:href="#DejaVuSans-56"/>
      </g>
     </g>
    </g>
    <g id="xtick_33">
     <g id="line2d_42">
      <g>
       <use style="stroke:#000000;stroke-width:0.8;" x="747.163636" xlink:href="#m58a79e5777" y="671.88"/>
      </g>
     </g>
     <g id="text_48">
      <!-- 9 -->
      <g transform="translate(743.982386 686.478437)scale(0.1 -0.1)">
       <defs>
        <path d="M 10.984375 1.515625 
L 10.984375 10.5 
Q 14.703125 8.734375 18.5 7.8125 
Q 22.3125 6.890625 25.984375 6.890625 
Q 35.75 6.890625 40.890625 13.453125 
Q 46.046875 20.015625 46.78125 33.40625 
Q 43.953125 29.203125 39.59375 26.953125 
Q 35.25 24.703125 29.984375 24.703125 
Q 19.046875 24.703125 12.671875 31.3125 
Q 6.296875 37.9375 6.296875 49.421875 
Q 6.296875 60.640625 12.9375 67.421875 
Q 19.578125 74.21875 30.609375 74.21875 
Q 43.265625 74.21875 49.921875 64.515625 
Q 56.59375 54.828125 56.59375 36.375 
Q 56.59375 19.140625 48.40625 8.859375 
Q 40.234375 -1.421875 26.421875 -1.421875 
Q 22.703125 -1.421875 18.890625 -0.6875 
Q 15.09375 0.046875 10.984375 1.515625 
z
M 30.609375 32.421875 
Q 37.25 32.421875 41.125 36.953125 
Q 45.015625 41.5 45.015625 49.421875 
Q 45.015625 57.28125 41.125 61.84375 
Q 37.25 66.40625 30.609375 66.40625 
Q 23.96875 66.40625 20.09375 61.84375 
Q 16.21875 57.28125 16.21875 49.421875 
Q 16.21875 41.5 20.09375 36.953125 
Q 23.96875 32.421875 30.609375 32.421875 
z
" id="DejaVuSans-57"/>
       </defs>
       <use xlink:href="#DejaVuSans-57"/>
      </g>
     </g>
    </g>
    <g id="text_49">
     <!-- Paketgre -->
     <g transform="translate(414.792969 700.156562)scale(0.1 -0.1)">
      <defs>
       <path d="M 30.609375 48.390625 
Q 23.390625 48.390625 19.1875 42.75 
Q 14.984375 37.109375 14.984375 27.296875 
Q 14.984375 17.484375 19.15625 11.84375 
Q 23.34375 6.203125 30.609375 6.203125 
Q 37.796875 6.203125 41.984375 11.859375 
Q 46.1875 17.53125 46.1875 27.296875 
Q 46.1875 37.015625 41.984375 42.703125 
Q 37.796875 48.390625 30.609375 48.390625 
z
M 30.609375 56 
Q 42.328125 56 49.015625 48.375 
Q 55.71875 40.765625 55.71875 27.296875 
Q 55.71875 13.875 49.015625 6.21875 
Q 42.328125 -1.421875 30.609375 -1.421875 
Q 18.84375 -1.421875 12.171875 6.21875 
Q 5.515625 13.875 5.515625 27.296875 
Q 5.515625 40.765625 12.171875 48.375 
Q 18.84375 56 30.609375 56 
z
M 35.21875 75.78125 
L 45.125 75.78125 
L 45.125 65.921875 
L 35.21875 65.921875 
z
M 16.125 75.78125 
L 26.03125 75.78125 
L 26.03125 65.921875 
L 16.125 65.921875 
z
" id="DejaVuSans-246"/>
       <path d="M 9.078125 55.515625 
Q 9.078125 65.28125 14.90625 70.625 
Q 20.75 75.984375 31.390625 75.984375 
Q 41.546875 75.984375 46.890625 70.3125 
Q 52.25 64.65625 52.390625 53.71875 
Q 45.015625 53.328125 40.90625 50.515625 
Q 36.8125 47.703125 36.8125 43.015625 
Q 36.8125 40.71875 38.234375 38.734375 
Q 39.65625 36.765625 42.828125 34.71875 
L 45.609375 32.90625 
Q 53.71875 27.734375 56.0625 24.265625 
Q 58.40625 20.796875 58.40625 15.921875 
Q 58.40625 7.515625 52.90625 3.046875 
Q 47.40625 -1.421875 37.109375 -1.421875 
Q 33.984375 -1.421875 30.65625 -0.8125 
Q 27.34375 -0.203125 23.78125 0.984375 
L 23.78125 8.984375 
Q 27.6875 7.515625 31.09375 6.8125 
Q 34.515625 6.109375 37.703125 6.109375 
Q 43.359375 6.109375 46.28125 8.421875 
Q 49.21875 10.75 49.21875 15.1875 
Q 49.21875 18.265625 47.78125 20.3125 
Q 46.34375 22.359375 41.40625 25.390625 
L 36.921875 28.078125 
Q 32.234375 30.953125 30.109375 34.25 
Q 27.984375 37.546875 27.984375 42 
Q 27.984375 48.1875 32.0625 52.390625 
Q 36.140625 56.59375 43.5 58.015625 
Q 43.109375 63.03125 39.90625 65.765625 
Q 36.71875 68.5 31.203125 68.5 
Q 24.859375 68.5 21.53125 65.109375 
Q 18.21875 61.71875 18.21875 55.328125 
L 18.21875 0 
L 9.078125 0 
z
" id="DejaVuSans-223"/>
      </defs>
      <use xlink:href="#DejaVuSans-80"/>
      <use x="55.802734" xlink:href="#DejaVuSans-97"/>
      <use x="117.082031" xlink:href="#DejaVuSans-107"/>
      <use x="171.367188" xlink:href="#DejaVuSans-101"/>
      <use x="232.890625" xlink:href="#DejaVuSans-116"/>
      <use x="272.099609" xlink:href="#DejaVuSans-103"/>
      <use x="335.576172" xlink:href="#DejaVuSans-114"/>
      <use x="374.439453" xlink:href="#DejaVuSans-246"/>
      <use x="435.621094" xlink:href="#DejaVuSans-223"/>
      <use x="498.609375" xlink:href="#DejaVuSans-101"/>
     </g>
    </g>
   </g>
   <g id="matplotlib.axis_8">
    <g id="ytick_10">
     <g id="line2d_43">
      <g>
       <use style="stroke:#000000;stroke-width:0.8;" x="108" xlink:href="#m7d9be4e03e" y="667.570909"/>
      </g>
     </g>
     <g id="text_50">
      <!-- 0 -->
      <g transform="translate(94.6375 671.370128)scale(0.1 -0.1)">
       <use xlink:href="#DejaVuSans-48"/>
      </g>
     </g>
    </g>
    <g id="ytick_11">
     <g id="line2d_44">
      <g>
       <use style="stroke:#000000;stroke-width:0.8;" x="108" xlink:href="#m7d9be4e03e" y="637.853041"/>
      </g>
     </g>
     <g id="text_51">
      <!-- 10 -->
      <g transform="translate(88.275 641.65226)scale(0.1 -0.1)">
       <use xlink:href="#DejaVuSans-49"/>
       <use x="63.623047" xlink:href="#DejaVuSans-48"/>
      </g>
     </g>
    </g>
    <g id="ytick_12">
     <g id="line2d_45">
      <g>
       <use style="stroke:#000000;stroke-width:0.8;" x="108" xlink:href="#m7d9be4e03e" y="608.135172"/>
      </g>
     </g>
     <g id="text_52">
      <!-- 20 -->
      <g transform="translate(88.275 611.934391)scale(0.1 -0.1)">
       <use xlink:href="#DejaVuSans-50"/>
       <use x="63.623047" xlink:href="#DejaVuSans-48"/>
      </g>
     </g>
    </g>
    <g id="ytick_13">
     <g id="line2d_46">
      <g>
       <use style="stroke:#000000;stroke-width:0.8;" x="108" xlink:href="#m7d9be4e03e" y="578.417304"/>
      </g>
     </g>
     <g id="text_53">
      <!-- 30 -->
      <g transform="translate(88.275 582.216523)scale(0.1 -0.1)">
       <use xlink:href="#DejaVuSans-51"/>
       <use x="63.623047" xlink:href="#DejaVuSans-48"/>
      </g>
     </g>
    </g>
    <g id="text_54">
     <!-- Wartezeit -->
     <g transform="translate(82.195312 648.31125)rotate(-90)scale(0.1 -0.1)">
      <defs>
       <path d="M 3.328125 72.90625 
L 13.28125 72.90625 
L 28.609375 11.28125 
L 43.890625 72.90625 
L 54.984375 72.90625 
L 70.3125 11.28125 
L 85.59375 72.90625 
L 95.609375 72.90625 
L 77.296875 0 
L 64.890625 0 
L 49.515625 63.28125 
L 33.984375 0 
L 21.578125 0 
z
" id="DejaVuSans-87"/>
       <path d="M 5.515625 54.6875 
L 48.1875 54.6875 
L 48.1875 46.484375 
L 14.40625 7.171875 
L 48.1875 7.171875 
L 48.1875 0 
L 4.296875 0 
L 4.296875 8.203125 
L 38.09375 47.515625 
L 5.515625 47.515625 
z
" id="DejaVuSans-122"/>
      </defs>
      <use xlink:href="#DejaVuSans-87"/>
      <use x="92.501953" xlink:href="#DejaVuSans-97"/>
      <use x="153.78125" xlink:href="#DejaVuSans-114"/>
      <use x="194.894531" xlink:href="#DejaVuSans-116"/>
      <use x="234.103516" xlink:href="#DejaVuSans-101"/>
      <use x="295.626953" xlink:href="#DejaVuSans-122"/>
      <use x="348.117188" xlink:href="#DejaVuSans-101"/>
      <use x="409.640625" xlink:href="#DejaVuSans-105"/>
      <use x="437.423828" xlink:href="#DejaVuSans-116"/>
     </g>
    </g>
   </g>
   <g id="patch_18">
    <path d="M 108 671.88 
L 108 577.08 
" style="fill:none;stroke:#000000;stroke-linecap:square;stroke-linejoin:miter;stroke-width:0.8;"/>
   </g>
   <g id="patch_19">
    <path d="M 777.6 671.88 
L 777.6 577.08 
" style="fill:none;stroke:#000000;stroke-linecap:square;stroke-linejoin:miter;stroke-width:0.8;"/>
   </g>
   <g id="patch_20">
    <path d="M 108 671.88 
L 777.6 671.88 
" style="fill:none;stroke:#000000;stroke-linecap:square;stroke-linejoin:miter;stroke-width:0.8;"/>
   </g>
   <g id="patch_21">
    <path d="M 108 577.08 
L 777.6 577.08 
" style="fill:none;stroke:#000000;stroke-linecap:square;stroke-linejoin:miter;stroke-width:0.8;"/>
   </g>
   <g id="text_55">
    <!-- Round-Robin (Auswertung) -->
    <g transform="translate(362.349375 571.08)scale(0.12 -0.12)">
     <defs>
      <path d="M 31 75.875 
Q 24.46875 64.65625 21.28125 53.65625 
Q 18.109375 42.671875 18.109375 31.390625 
Q 18.109375 20.125 21.3125 9.0625 
Q 24.515625 -2 31 -13.1875 
L 23.1875 -13.1875 
Q 15.875 -1.703125 12.234375 9.375 
Q 8.59375 20.453125 8.59375 31.390625 
Q 8.59375 42.28125 12.203125 53.3125 
Q 15.828125 64.359375 23.1875 75.875 
z
" id="DejaVuSans-40"/>
      <path d="M 34.1875 63.1875 
L 20.796875 26.90625 
L 47.609375 26.90625 
z
M 28.609375 72.90625 
L 39.796875 72.90625 
L 67.578125 0 
L 57.328125 0 
L 50.6875 18.703125 
L 17.828125 18.703125 
L 11.1875 0 
L 0.78125 0 
z
" id="DejaVuSans-65"/>
      <path d="M 44.28125 53.078125 
L 44.28125 44.578125 
Q 40.484375 46.53125 36.375 47.5 
Q 32.28125 48.484375 27.875 48.484375 
Q 21.1875 48.484375 17.84375 46.4375 
Q 14.5 44.390625 14.5 40.28125 
Q 14.5 37.15625 16.890625 35.375 
Q 19.28125 33.59375 26.515625 31.984375 
L 29.59375 31.296875 
Q 39.15625 29.25 43.1875 25.515625 
Q 47.21875 21.78125 47.21875 15.09375 
Q 47.21875 7.46875 41.1875 3.015625 
Q 35.15625 -1.421875 24.609375 -1.421875 
Q 20.21875 -1.421875 15.453125 -0.5625 
Q 10.6875 0.296875 5.421875 2 
L 5.421875 11.28125 
Q 10.40625 8.6875 15.234375 7.390625 
Q 20.0625 6.109375 24.8125 6.109375 
Q 31.15625 6.109375 34.5625 8.28125 
Q 37.984375 10.453125 37.984375 14.40625 
Q 37.984375 18.0625 35.515625 20.015625 
Q 33.0625 21.96875 24.703125 23.78125 
L 21.578125 24.515625 
Q 13.234375 26.265625 9.515625 29.90625 
Q 5.8125 33.546875 5.8125 39.890625 
Q 5.8125 47.609375 11.28125 51.796875 
Q 16.75 56 26.8125 56 
Q 31.78125 56 36.171875 55.265625 
Q 40.578125 54.546875 44.28125 53.078125 
z
" id="DejaVuSans-115"/>
      <path d="M 4.203125 54.6875 
L 13.1875 54.6875 
L 24.421875 12.015625 
L 35.59375 54.6875 
L 46.1875 54.6875 
L 57.421875 12.015625 
L 68.609375 54.6875 
L 77.59375 54.6875 
L 63.28125 0 
L 52.6875 0 
L 40.921875 44.828125 
L 29.109375 0 
L 18.5 0 
z
" id="DejaVuSans-119"/>
      <path d="M 8.015625 75.875 
L 15.828125 75.875 
Q 23.140625 64.359375 26.78125 53.3125 
Q 30.421875 42.28125 30.421875 31.390625 
Q 30.421875 20.453125 26.78125 9.375 
Q 23.140625 -1.703125 15.828125 -13.1875 
L 8.015625 -13.1875 
Q 14.5 -2 17.703125 9.0625 
Q 20.90625 20.125 20.90625 31.390625 
Q 20.90625 42.671875 17.703125 53.65625 
Q 14.5 64.65625 8.015625 75.875 
z
" id="DejaVuSans-41"/>
     </defs>
     <use xlink:href="#DejaVuSans-82"/>
     <use x="64.982422" xlink:href="#DejaVuSans-111"/>
     <use x="126.164062" xlink:href="#DejaVuSans-117"/>
     <use x="189.542969" xlink:href="#DejaVuSans-110"/>
     <use x="252.921875" xlink:href="#DejaVuSans-100"/>
     <use x="316.398438" xlink:href="#DejaVuSans-45"/>
     <use x="352.482422" xlink:href="#DejaVuSans-82"/>
     <use x="417.464844" xlink:href="#DejaVuSans-111"/>
     <use x="478.646484" xlink:href="#DejaVuSans-98"/>
     <use x="542.123047" xlink:href="#DejaVuSans-105"/>
     <use x="569.90625" xlink:href="#DejaVuSans-110"/>
     <use x="633.285156" xlink:href="#DejaVuSans-32"/>
     <use x="665.072266" xlink:href="#DejaVuSans-40"/>
     <use x="704.085938" xlink:href="#DejaVuSans-65"/>
     <use x="772.494141" xlink:href="#DejaVuSans-117"/>
     <use x="835.873047" xlink:href="#DejaVuSans-115"/>
     <use x="887.972656" xlink:href="#DejaVuSans-119"/>
     <use x="969.759766" xlink:href="#DejaVuSans-101"/>
     <use x="1031.283203" xlink:href="#DejaVuSans-114"/>
     <use x="1072.396484" xlink:href="#DejaVuSans-116"/>
     <use x="1111.605469" xlink:href="#DejaVuSans-117"/>
     <use x="1174.984375" xlink:href="#DejaVuSans-110"/>
     <use x="1238.363281" xlink:href="#DejaVuSans-103"/>
     <use x="1301.839844" xlink:href="#DejaVuSans-41"/>
    </g>
   </g>
  </g>
  <g id="axes_5">
   <g id="patch_22">
    <path d="M 108 833.04 
L 777.6 833.04 
L 777.6 738.24 
L 108 738.24 
z
" style="fill:#ffffff;"/>
   </g>
   <g id="PathCollection_2">
    <g clip-path="url(#pccb3b0b461)">
     <use style="fill:#1f77b4;stroke:#1f77b4;" x="671.072727" xlink:href="#m7bd1dade17" y="828.730909"/>
     <use style="fill:#1f77b4;stroke:#1f77b4;" x="290.618182" xlink:href="#m7bd1dade17" y="801.309421"/>
     <use style="fill:#1f77b4;stroke:#1f77b4;" x="366.709091" xlink:href="#m7bd1dade17" y="805.226777"/>
     <use style="fill:#1f77b4;stroke:#1f77b4;" x="366.709091" xlink:href="#m7bd1dade17" y="789.557355"/>
     <use style="fill:#1f77b4;stroke:#1f77b4;" x="518.890909" xlink:href="#m7bd1dade17" y="789.557355"/>
     <use style="fill:#1f77b4;stroke:#1f77b4;" x="214.527273" xlink:href="#m7bd1dade17" y="785.64"/>
     <use style="fill:#1f77b4;stroke:#1f77b4;" x="442.8" xlink:href="#m7bd1dade17" y="777.805289"/>
     <use style="fill:#1f77b4;stroke:#1f77b4;" x="290.618182" xlink:href="#m7bd1dade17" y="777.805289"/>
     <use style="fill:#1f77b4;stroke:#1f77b4;" x="594.981818" xlink:href="#m7bd1dade17" y="805.226777"/>
     <use style="fill:#1f77b4;stroke:#1f77b4;" x="442.8" xlink:href="#m7bd1dade17" y="793.474711"/>
     <use style="fill:#1f77b4;stroke:#1f77b4;" x="747.163636" xlink:href="#m7bd1dade17" y="773.887934"/>
     <use style="fill:#1f77b4;stroke:#1f77b4;" x="214.527273" xlink:href="#m7bd1dade17" y="750.383802"/>
     <use style="fill:#1f77b4;stroke:#1f77b4;" x="214.527273" xlink:href="#m7bd1dade17" y="750.383802"/>
     <use style="fill:#1f77b4;stroke:#1f77b4;" x="747.163636" xlink:href="#m7bd1dade17" y="742.549091"/>
     <use style="fill:#1f77b4;stroke:#1f77b4;" x="138.436364" xlink:href="#m7bd1dade17" y="742.549091"/>
    </g>
   </g>
   <g id="matplotlib.axis_9">
    <g id="xtick_34">
     <g id="line2d_47">
      <g>
       <use style="stroke:#000000;stroke-width:0.8;" x="138.436364" xlink:href="#m58a79e5777" y="833.04"/>
      </g>
     </g>
     <g id="text_56">
      <!-- 1 -->
      <g transform="translate(135.255114 847.638437)scale(0.1 -0.1)">
       <use xlink:href="#DejaVuSans-49"/>
      </g>
     </g>
    </g>
    <g id="xtick_35">
     <g id="line2d_48">
      <g>
       <use style="stroke:#000000;stroke-width:0.8;" x="214.527273" xlink:href="#m58a79e5777" y="833.04"/>
      </g>
     </g>
     <g id="text_57">
      <!-- 2 -->
      <g transform="translate(211.346023 847.638437)scale(0.1 -0.1)">
       <use xlink:href="#DejaVuSans-50"/>
      </g>
     </g>
    </g>
    <g id="xtick_36">
     <g id="line2d_49">
      <g>
       <use style="stroke:#000000;stroke-width:0.8;" x="290.618182" xlink:href="#m58a79e5777" y="833.04"/>
      </g>
     </g>
     <g id="text_58">
      <!-- 3 -->
      <g transform="translate(287.436932 847.638437)scale(0.1 -0.1)">
       <use xlink:href="#DejaVuSans-51"/>
      </g>
     </g>
    </g>
    <g id="xtick_37">
     <g id="line2d_50">
      <g>
       <use style="stroke:#000000;stroke-width:0.8;" x="366.709091" xlink:href="#m58a79e5777" y="833.04"/>
      </g>
     </g>
     <g id="text_59">
      <!-- 4 -->
      <g transform="translate(363.527841 847.638437)scale(0.1 -0.1)">
       <use xlink:href="#DejaVuSans-52"/>
      </g>
     </g>
    </g>
    <g id="xtick_38">
     <g id="line2d_51">
      <g>
       <use style="stroke:#000000;stroke-width:0.8;" x="442.8" xlink:href="#m58a79e5777" y="833.04"/>
      </g>
     </g>
     <g id="text_60">
      <!-- 5 -->
      <g transform="translate(439.61875 847.638437)scale(0.1 -0.1)">
       <use xlink:href="#DejaVuSans-53"/>
      </g>
     </g>
    </g>
    <g id="xtick_39">
     <g id="line2d_52">
      <g>
       <use style="stroke:#000000;stroke-width:0.8;" x="518.890909" xlink:href="#m58a79e5777" y="833.04"/>
      </g>
     </g>
     <g id="text_61">
      <!-- 6 -->
      <g transform="translate(515.709659 847.638437)scale(0.1 -0.1)">
       <use xlink:href="#DejaVuSans-54"/>
      </g>
     </g>
    </g>
    <g id="xtick_40">
     <g id="line2d_53">
      <g>
       <use style="stroke:#000000;stroke-width:0.8;" x="594.981818" xlink:href="#m58a79e5777" y="833.04"/>
      </g>
     </g>
     <g id="text_62">
      <!-- 7 -->
      <g transform="translate(591.800568 847.638437)scale(0.1 -0.1)">
       <use xlink:href="#DejaVuSans-55"/>
      </g>
     </g>
    </g>
    <g id="xtick_41">
     <g id="line2d_54">
      <g>
       <use style="stroke:#000000;stroke-width:0.8;" x="671.072727" xlink:href="#m58a79e5777" y="833.04"/>
      </g>
     </g>
     <g id="text_63">
      <!-- 8 -->
      <g transform="translate(667.891477 847.638437)scale(0.1 -0.1)">
       <use xlink:href="#DejaVuSans-56"/>
      </g>
     </g>
    </g>
    <g id="xtick_42">
     <g id="line2d_55">
      <g>
       <use style="stroke:#000000;stroke-width:0.8;" x="747.163636" xlink:href="#m58a79e5777" y="833.04"/>
      </g>
     </g>
     <g id="text_64">
      <!-- 9 -->
      <g transform="translate(743.982386 847.638437)scale(0.1 -0.1)">
       <use xlink:href="#DejaVuSans-57"/>
      </g>
     </g>
    </g>
    <g id="text_65">
     <!-- Paketgre -->
     <g transform="translate(414.792969 861.316562)scale(0.1 -0.1)">
      <use xlink:href="#DejaVuSans-80"/>
      <use x="55.802734" xlink:href="#DejaVuSans-97"/>
      <use x="117.082031" xlink:href="#DejaVuSans-107"/>
      <use x="171.367188" xlink:href="#DejaVuSans-101"/>
      <use x="232.890625" xlink:href="#DejaVuSans-116"/>
      <use x="272.099609" xlink:href="#DejaVuSans-103"/>
      <use x="335.576172" xlink:href="#DejaVuSans-114"/>
      <use x="374.439453" xlink:href="#DejaVuSans-246"/>
      <use x="435.621094" xlink:href="#DejaVuSans-223"/>
      <use x="498.609375" xlink:href="#DejaVuSans-101"/>
     </g>
    </g>
   </g>
   <g id="matplotlib.axis_10">
    <g id="ytick_14">
     <g id="line2d_56">
      <g>
       <use style="stroke:#000000;stroke-width:0.8;" x="108" xlink:href="#m7d9be4e03e" y="828.730909"/>
      </g>
     </g>
     <g id="text_66">
      <!-- 0 -->
      <g transform="translate(94.6375 832.530128)scale(0.1 -0.1)">
       <use xlink:href="#DejaVuSans-48"/>
      </g>
     </g>
    </g>
    <g id="ytick_15">
     <g id="line2d_57">
      <g>
       <use style="stroke:#000000;stroke-width:0.8;" x="108" xlink:href="#m7d9be4e03e" y="789.557355"/>
      </g>
     </g>
     <g id="text_67">
      <!-- 10 -->
      <g transform="translate(88.275 793.356574)scale(0.1 -0.1)">
       <use xlink:href="#DejaVuSans-49"/>
       <use x="63.623047" xlink:href="#DejaVuSans-48"/>
      </g>
     </g>
    </g>
    <g id="ytick_16">
     <g id="line2d_58">
      <g>
       <use style="stroke:#000000;stroke-width:0.8;" x="108" xlink:href="#m7d9be4e03e" y="750.383802"/>
      </g>
     </g>
     <g id="text_68">
      <!-- 20 -->
      <g transform="translate(88.275 754.18302)scale(0.1 -0.1)">
       <use xlink:href="#DejaVuSans-50"/>
       <use x="63.623047" xlink:href="#DejaVuSans-48"/>
      </g>
     </g>
    </g>
    <g id="text_69">
     <!-- Wartezeit -->
     <g transform="translate(82.195312 809.47125)rotate(-90)scale(0.1 -0.1)">
      <use xlink:href="#DejaVuSans-87"/>
      <use x="92.501953" xlink:href="#DejaVuSans-97"/>
      <use x="153.78125" xlink:href="#DejaVuSans-114"/>
      <use x="194.894531" xlink:href="#DejaVuSans-116"/>
      <use x="234.103516" xlink:href="#DejaVuSans-101"/>
      <use x="295.626953" xlink:href="#DejaVuSans-122"/>
      <use x="348.117188" xlink:href="#DejaVuSans-101"/>
      <use x="409.640625" xlink:href="#DejaVuSans-105"/>
      <use x="437.423828" xlink:href="#DejaVuSans-116"/>
     </g>
    </g>
   </g>
   <g id="patch_23">
    <path d="M 108 833.04 
L 108 738.24 
" style="fill:none;stroke:#000000;stroke-linecap:square;stroke-linejoin:miter;stroke-width:0.8;"/>
   </g>
   <g id="patch_24">
    <path d="M 777.6 833.04 
L 777.6 738.24 
" style="fill:none;stroke:#000000;stroke-linecap:square;stroke-linejoin:miter;stroke-width:0.8;"/>
   </g>
   <g id="patch_25">
    <path d="M 108 833.04 
L 777.6 833.04 
" style="fill:none;stroke:#000000;stroke-linecap:square;stroke-linejoin:miter;stroke-width:0.8;"/>
   </g>
   <g id="patch_26">
    <path d="M 108 738.24 
L 777.6 738.24 
" style="fill:none;stroke:#000000;stroke-linecap:square;stroke-linejoin:miter;stroke-width:0.8;"/>
   </g>
   <g id="text_70">
    <!-- Fair Queuing (Auswertung) -->
    <g transform="translate(362.428125 732.24)scale(0.12 -0.12)">
     <use xlink:href="#DejaVuSans-70"/>
     <use x="48.394531" xlink:href="#DejaVuSans-97"/>
     <use x="109.673828" xlink:href="#DejaVuSans-105"/>
     <use x="137.457031" xlink:href="#DejaVuSans-114"/>
     <use x="178.570312" xlink:href="#DejaVuSans-32"/>
     <use x="210.357422" xlink:href="#DejaVuSans-81"/>
     <use x="289.068359" xlink:href="#DejaVuSans-117"/>
     <use x="352.447266" xlink:href="#DejaVuSans-101"/>
     <use x="413.970703" xlink:href="#DejaVuSans-117"/>
     <use x="477.349609" xlink:href="#DejaVuSans-105"/>
     <use x="505.132812" xlink:href="#DejaVuSans-110"/>
     <use x="568.511719" xlink:href="#DejaVuSans-103"/>
     <use x="631.988281" xlink:href="#DejaVuSans-32"/>
     <use x="663.775391" xlink:href="#DejaVuSans-40"/>
     <use x="702.789062" xlink:href="#DejaVuSans-65"/>
     <use x="771.197266" xlink:href="#DejaVuSans-117"/>
     <use x="834.576172" xlink:href="#DejaVuSans-115"/>
     <use x="886.675781" xlink:href="#DejaVuSans-119"/>
     <use x="968.462891" xlink:href="#DejaVuSans-101"/>
     <use x="1029.986328" xlink:href="#DejaVuSans-114"/>
     <use x="1071.099609" xlink:href="#DejaVuSans-116"/>
     <use x="1110.308594" xlink:href="#DejaVuSans-117"/>
     <use x="1173.6875" xlink:href="#DejaVuSans-110"/>
     <use x="1237.066406" xlink:href="#DejaVuSans-103"/>
     <use x="1300.542969" xlink:href="#DejaVuSans-41"/>
    </g>
   </g>
  </g>
  <g id="text_71">
   <!-- Scheduling-Verfahren -->
   <g transform="translate(346.4175 30.8775)scale(0.16 -0.16)">
    <defs>
     <path d="M 53.515625 70.515625 
L 53.515625 60.890625 
Q 47.90625 63.578125 42.921875 64.890625 
Q 37.9375 66.21875 33.296875 66.21875 
Q 25.25 66.21875 20.875 63.09375 
Q 16.5 59.96875 16.5 54.203125 
Q 16.5 49.359375 19.40625 46.890625 
Q 22.3125 44.4375 30.421875 42.921875 
L 36.375 41.703125 
Q 47.40625 39.59375 52.65625 34.296875 
Q 57.90625 29 57.90625 20.125 
Q 57.90625 9.515625 50.796875 4.046875 
Q 43.703125 -1.421875 29.984375 -1.421875 
Q 24.8125 -1.421875 18.96875 -0.25 
Q 13.140625 0.921875 6.890625 3.21875 
L 6.890625 13.375 
Q 12.890625 10.015625 18.65625 8.296875 
Q 24.421875 6.59375 29.984375 6.59375 
Q 38.421875 6.59375 43.015625 9.90625 
Q 47.609375 13.234375 47.609375 19.390625 
Q 47.609375 24.75 44.3125 27.78125 
Q 41.015625 30.8125 33.5 32.328125 
L 27.484375 33.5 
Q 16.453125 35.6875 11.515625 40.375 
Q 6.59375 45.0625 6.59375 53.421875 
Q 6.59375 63.09375 13.40625 68.65625 
Q 20.21875 74.21875 32.171875 74.21875 
Q 37.3125 74.21875 42.625 73.28125 
Q 47.953125 72.359375 53.515625 70.515625 
z
" id="DejaVuSans-83"/>
     <path d="M 48.78125 52.59375 
L 48.78125 44.1875 
Q 44.96875 46.296875 41.140625 47.34375 
Q 37.3125 48.390625 33.40625 48.390625 
Q 24.65625 48.390625 19.8125 42.84375 
Q 14.984375 37.3125 14.984375 27.296875 
Q 14.984375 17.28125 19.8125 11.734375 
Q 24.65625 6.203125 33.40625 6.203125 
Q 37.3125 6.203125 41.140625 7.25 
Q 44.96875 8.296875 48.78125 10.40625 
L 48.78125 2.09375 
Q 45.015625 0.34375 40.984375 -0.53125 
Q 36.96875 -1.421875 32.421875 -1.421875 
Q 20.0625 -1.421875 12.78125 6.34375 
Q 5.515625 14.109375 5.515625 27.296875 
Q 5.515625 40.671875 12.859375 48.328125 
Q 20.21875 56 33.015625 56 
Q 37.15625 56 41.109375 55.140625 
Q 45.0625 54.296875 48.78125 52.59375 
z
" id="DejaVuSans-99"/>
     <path d="M 54.890625 33.015625 
L 54.890625 0 
L 45.90625 0 
L 45.90625 32.71875 
Q 45.90625 40.484375 42.875 44.328125 
Q 39.84375 48.1875 33.796875 48.1875 
Q 26.515625 48.1875 22.3125 43.546875 
Q 18.109375 38.921875 18.109375 30.90625 
L 18.109375 0 
L 9.078125 0 
L 9.078125 75.984375 
L 18.109375 75.984375 
L 18.109375 46.1875 
Q 21.34375 51.125 25.703125 53.5625 
Q 30.078125 56 35.796875 56 
Q 45.21875 56 50.046875 50.171875 
Q 54.890625 44.34375 54.890625 33.015625 
z
" id="DejaVuSans-104"/>
     <path d="M 28.609375 0 
L 0.78125 72.90625 
L 11.078125 72.90625 
L 34.1875 11.53125 
L 57.328125 72.90625 
L 67.578125 72.90625 
L 39.796875 0 
z
" id="DejaVuSans-86"/>
    </defs>
    <use xlink:href="#DejaVuSans-83"/>
    <use x="63.476562" xlink:href="#DejaVuSans-99"/>
    <use x="118.457031" xlink:href="#DejaVuSans-104"/>
    <use x="181.835938" xlink:href="#DejaVuSans-101"/>
    <use x="243.359375" xlink:href="#DejaVuSans-100"/>
    <use x="306.835938" xlink:href="#DejaVuSans-117"/>
    <use x="370.214844" xlink:href="#DejaVuSans-108"/>
    <use x="397.998047" xlink:href="#DejaVuSans-105"/>
    <use x="425.78125" xlink:href="#DejaVuSans-110"/>
    <use x="489.160156" xlink:href="#DejaVuSans-103"/>
    <use x="552.636719" xlink:href="#DejaVuSans-45"/>
    <use x="582.845703" xlink:href="#DejaVuSans-86"/>
    <use x="643.503906" xlink:href="#DejaVuSans-101"/>
    <use x="705.027344" xlink:href="#DejaVuSans-114"/>
    <use x="746.140625" xlink:href="#DejaVuSans-102"/>
    <use x="781.345703" xlink:href="#DejaVuSans-97"/>
    <use x="842.625" xlink:href="#DejaVuSans-104"/>
    <use x="906.003906" xlink:href="#DejaVuSans-114"/>
    <use x="944.867188" xlink:href="#DejaVuSans-101"/>
    <use x="1006.390625" xlink:href="#DejaVuSans-110"/>
   </g>
  </g>
 </g>
 <defs>
  <clipPath id="p3397030508">
   <rect height="94.8" width="669.6" x="108" y="93.6"/>
  </clipPath>
  <clipPath id="pc4403b5cac">
   <rect height="94.8" width="669.6" x="108" y="254.76"/>
  </clipPath>
  <clipPath id="p31803f843d">
   <rect height="94.8" width="669.6" x="108" y="415.92"/>
  </clipPath>
  <clipPath id="pa7a5c51860">
   <rect height="94.8" width="669.6" x="108" y="577.08"/>
  </clipPath>
  <clipPath id="pccb3b0b461">
   <rect height="94.8" width="669.6" x="108" y="738.24"/>
  </clipPath>
 </defs>
</svg>
